<svg xmlns="http://www.w3.org/2000/svg" xmlns:xlink="http://www.w3.org/1999/xlink" width="700" zoomAndPan="magnify" viewBox="0 0 525 525.000007" height="700" preserveAspectRatio="xMidYMid meet" version="1.0"><defs><g/></defs><path fill="#ffffff" d="M 209.203125 112.78125 C 210.632812 112.78125 212.0625 112.8125 213.488281 112.882812 C 214.917969 112.953125 216.34375 113.054688 217.765625 113.195312 C 219.191406 113.335938 220.609375 113.507812 222.023438 113.71875 C 223.4375 113.925781 224.84375 114.171875 226.246094 114.449219 C 227.648438 114.726562 229.046875 115.039062 230.433594 115.386719 C 231.820312 115.730469 233.195312 116.113281 234.566406 116.527344 C 235.933594 116.941406 237.289062 117.386719 238.636719 117.867188 C 239.984375 118.347656 241.316406 118.863281 242.636719 119.410156 C 243.960938 119.957031 245.265625 120.535156 246.558594 121.144531 C 247.851562 121.753906 249.128906 122.394531 250.390625 123.070312 C 251.652344 123.742188 252.894531 124.445312 254.121094 125.179688 C 255.347656 125.914062 256.554688 126.675781 257.742188 127.472656 C 258.933594 128.265625 260.101562 129.085938 261.25 129.9375 C 262.398438 130.789062 263.527344 131.667969 264.628906 132.574219 C 265.734375 133.480469 266.820312 134.410156 267.878906 135.371094 C 268.9375 136.328125 269.972656 137.3125 270.984375 138.324219 C 271.996094 139.335938 272.980469 140.367188 273.941406 141.425781 C 274.898438 142.484375 275.832031 143.566406 276.742188 144.671875 C 277.648438 145.777344 278.527344 146.902344 279.378906 148.046875 C 280.230469 149.195312 281.054688 150.363281 281.847656 151.550781 C 282.640625 152.738281 283.40625 153.945312 284.140625 155.171875 C 284.875 156.398438 285.578125 157.640625 286.253906 158.898438 C 286.925781 160.160156 287.570312 161.433594 288.179688 162.726562 C 288.792969 164.019531 289.371094 165.324219 289.917969 166.644531 C 290.464844 167.964844 290.976562 169.296875 291.457031 170.640625 C 291.941406 171.984375 292.386719 173.34375 292.800781 174.707031 C 293.214844 176.074219 293.597656 177.453125 293.945312 178.839844 C 294.289062 180.222656 294.605469 181.617188 294.882812 183.019531 C 295.160156 184.417969 295.402344 185.828125 295.613281 187.238281 C 295.820312 188.652344 295.996094 190.070312 296.136719 191.492188 C 296.273438 192.914062 296.378906 194.335938 296.449219 195.765625 C 296.519531 197.191406 296.550781 198.617188 296.550781 200.046875 L 209.203125 200.046875 Z M 209.203125 112.78125 " fill-opacity="1" fill-rule="nonzero"/><path fill="#eccaaf" d="M 252.851562 216.425781 L 252.863281 216.425781 C 254.085938 216.425781 255.304688 216.484375 256.519531 216.605469 C 257.734375 216.722656 258.941406 216.902344 260.140625 217.140625 C 261.335938 217.378906 262.519531 217.675781 263.6875 218.027344 C 264.859375 218.382812 266.007812 218.792969 267.136719 219.261719 C 268.261719 219.726562 269.367188 220.25 270.441406 220.824219 C 271.519531 221.398438 272.566406 222.027344 273.582031 222.703125 C 274.597656 223.382812 275.578125 224.109375 276.523438 224.882812 C 277.464844 225.65625 278.371094 226.472656 279.234375 227.335938 C 280.097656 228.199219 280.917969 229.101562 281.691406 230.046875 C 282.464844 230.988281 283.191406 231.96875 283.871094 232.984375 C 284.550781 233.996094 285.175781 235.042969 285.753906 236.117188 C 286.328125 237.195312 286.851562 238.296875 287.316406 239.425781 C 287.785156 240.550781 288.195312 241.699219 288.550781 242.867188 C 288.90625 244.035156 289.199219 245.214844 289.4375 246.414062 C 289.679688 247.609375 289.855469 248.816406 289.976562 250.03125 C 290.097656 251.246094 290.15625 252.460938 290.15625 253.683594 L 290.15625 253.695312 C 290.15625 254.914062 290.097656 256.132812 289.976562 257.347656 C 289.855469 258.5625 289.679688 259.765625 289.4375 260.964844 C 289.199219 262.160156 288.90625 263.34375 288.550781 264.511719 C 288.195312 265.679688 287.785156 266.824219 287.316406 267.953125 C 286.851562 269.082031 286.328125 270.183594 285.753906 271.257812 C 285.175781 272.335938 284.550781 273.378906 283.871094 274.394531 C 283.191406 275.410156 282.464844 276.386719 281.691406 277.332031 C 280.917969 278.273438 280.097656 279.175781 279.234375 280.039062 C 278.371094 280.902344 277.464844 281.722656 276.523438 282.496094 C 275.578125 283.269531 274.597656 283.996094 273.582031 284.675781 C 272.566406 285.351562 271.519531 285.976562 270.441406 286.554688 C 269.367188 287.128906 268.261719 287.648438 267.136719 288.117188 C 266.007812 288.582031 264.859375 288.996094 263.6875 289.347656 C 262.519531 289.703125 261.335938 290 260.140625 290.238281 C 258.941406 290.476562 257.734375 290.652344 256.519531 290.773438 C 255.304688 290.894531 254.085938 290.953125 252.863281 290.953125 L 252.851562 290.953125 C 251.628906 290.953125 250.410156 290.894531 249.195312 290.773438 C 247.980469 290.652344 246.773438 290.476562 245.574219 290.238281 C 244.378906 290 243.195312 289.703125 242.023438 289.347656 C 240.855469 288.996094 239.707031 288.582031 238.578125 288.117188 C 237.449219 287.648438 236.347656 287.128906 235.269531 286.554688 C 234.195312 285.976562 233.148438 285.351562 232.132812 284.675781 C 231.117188 283.996094 230.136719 283.269531 229.191406 282.496094 C 228.25 281.722656 227.34375 280.902344 226.480469 280.039062 C 225.617188 279.175781 224.796875 278.273438 224.023438 277.332031 C 223.25 276.386719 222.523438 275.410156 221.84375 274.394531 C 221.164062 273.378906 220.539062 272.335938 219.960938 271.257812 C 219.386719 270.183594 218.863281 269.082031 218.398438 267.953125 C 217.929688 266.824219 217.519531 265.679688 217.164062 264.511719 C 216.808594 263.34375 216.511719 262.160156 216.273438 260.964844 C 216.035156 259.765625 215.859375 258.5625 215.738281 257.347656 C 215.617188 256.132812 215.558594 254.914062 215.558594 253.695312 L 215.558594 253.683594 C 215.558594 252.460938 215.617188 251.246094 215.738281 250.03125 C 215.859375 248.816406 216.035156 247.609375 216.273438 246.414062 C 216.511719 245.214844 216.808594 244.035156 217.164062 242.867188 C 217.519531 241.699219 217.929688 240.550781 218.398438 239.425781 C 218.863281 238.296875 219.386719 237.195312 219.960938 236.117188 C 220.539062 235.042969 221.164062 233.996094 221.84375 232.984375 C 222.523438 231.96875 223.25 230.988281 224.023438 230.046875 C 224.796875 229.101562 225.617188 228.199219 226.480469 227.335938 C 227.34375 226.472656 228.25 225.65625 229.191406 224.882812 C 230.136719 224.109375 231.117188 223.382812 232.132812 222.703125 C 233.148438 222.027344 234.195312 221.398438 235.269531 220.824219 C 236.347656 220.25 237.449219 219.726562 238.578125 219.261719 C 239.707031 218.792969 240.855469 218.382812 242.023438 218.027344 C 243.195312 217.675781 244.378906 217.378906 245.574219 217.140625 C 246.773438 216.902344 247.980469 216.722656 249.195312 216.605469 C 250.410156 216.484375 251.628906 216.425781 252.851562 216.425781 Z M 252.851562 216.425781 " fill-opacity="1" fill-rule="nonzero"/><path fill="#ffffff" d="M 310.191406 200.046875 L 310.191406 210.074219 C 310.191406 211.503906 310.226562 212.929688 310.296875 214.355469 C 310.367188 215.78125 310.472656 217.203125 310.613281 218.625 C 310.753906 220.046875 310.925781 221.460938 311.136719 222.875 C 311.347656 224.285156 311.589844 225.691406 311.871094 227.09375 C 312.148438 228.492188 312.460938 229.886719 312.808594 231.269531 C 313.15625 232.65625 313.535156 234.03125 313.953125 235.394531 C 314.367188 236.761719 314.8125 238.117188 315.296875 239.460938 C 315.777344 240.804688 316.289062 242.136719 316.835938 243.457031 C 317.382812 244.773438 317.964844 246.078125 318.574219 247.371094 C 319.183594 248.660156 319.828125 249.933594 320.5 251.195312 C 321.175781 252.453125 321.878906 253.695312 322.613281 254.917969 C 323.347656 256.144531 324.113281 257.347656 324.90625 258.535156 C 325.699219 259.722656 326.523438 260.890625 327.375 262.035156 C 328.222656 263.183594 329.101562 264.308594 330.007812 265.410156 C 330.917969 266.515625 331.847656 267.59375 332.808594 268.652344 C 333.769531 269.710938 334.753906 270.746094 335.761719 271.753906 C 336.773438 272.761719 337.808594 273.746094 338.867188 274.707031 C 339.925781 275.664062 341.007812 276.597656 342.113281 277.503906 C 343.214844 278.40625 344.34375 279.285156 345.488281 280.136719 C 346.636719 280.988281 347.804688 281.808594 348.992188 282.601562 C 350.183594 283.394531 351.386719 284.15625 352.613281 284.890625 C 353.839844 285.625 355.082031 286.328125 356.34375 287.003906 C 357.601562 287.675781 358.878906 288.316406 360.171875 288.925781 C 361.460938 289.539062 362.769531 290.117188 364.089844 290.664062 C 365.40625 291.207031 366.742188 291.722656 368.085938 292.203125 C 369.429688 292.683594 370.789062 293.132812 372.15625 293.546875 C 373.523438 293.960938 374.898438 294.339844 376.285156 294.6875 C 377.671875 295.035156 379.066406 295.347656 380.464844 295.625 C 381.867188 295.90625 383.273438 296.148438 384.6875 296.359375 C 386.101562 296.566406 387.519531 296.742188 388.941406 296.882812 C 390.363281 297.023438 391.789062 297.125 393.214844 297.195312 C 394.640625 297.265625 396.070312 297.300781 397.5 297.300781 L 397.5 112.78125 C 396.070312 112.78125 394.640625 112.816406 393.214844 112.886719 C 391.785156 112.957031 390.363281 113.0625 388.9375 113.199219 C 387.515625 113.339844 386.097656 113.515625 384.683594 113.726562 C 383.269531 113.933594 381.863281 114.179688 380.460938 114.457031 C 379.058594 114.734375 377.664062 115.050781 376.277344 115.394531 C 374.894531 115.742188 373.515625 116.125 372.148438 116.539062 C 370.78125 116.953125 369.421875 117.402344 368.078125 117.882812 C 366.730469 118.363281 365.398438 118.878906 364.078125 119.425781 C 362.757812 119.96875 361.453125 120.550781 360.160156 121.160156 C 358.867188 121.769531 357.59375 122.414062 356.332031 123.085938 C 355.070312 123.757812 353.828125 124.464844 352.601562 125.199219 C 351.375 125.933594 350.167969 126.695312 348.980469 127.488281 C 347.792969 128.28125 346.625 129.105469 345.476562 129.957031 C 344.328125 130.804688 343.203125 131.683594 342.097656 132.589844 C 340.992188 133.496094 339.910156 134.429688 338.851562 135.390625 C 337.792969 136.347656 336.757812 137.332031 335.75 138.34375 C 334.738281 139.351562 333.753906 140.386719 332.792969 141.445312 C 331.835938 142.503906 330.902344 143.585938 329.996094 144.6875 C 329.089844 145.792969 328.210938 146.917969 327.359375 148.066406 C 326.507812 149.210938 325.683594 150.378906 324.890625 151.566406 C 324.097656 152.753906 323.332031 153.960938 322.597656 155.1875 C 321.863281 156.410156 321.160156 157.652344 320.488281 158.914062 C 319.8125 160.171875 319.171875 161.449219 318.5625 162.738281 C 317.949219 164.03125 317.371094 165.335938 316.824219 166.65625 C 316.28125 167.972656 315.765625 169.304688 315.285156 170.652344 C 314.804688 171.996094 314.355469 173.351562 313.941406 174.71875 C 313.527344 176.085938 313.148438 177.460938 312.800781 178.84375 C 312.453125 180.230469 312.140625 181.625 311.863281 183.023438 C 311.585938 184.425781 311.339844 185.832031 311.132812 187.242188 C 310.921875 188.65625 310.746094 190.074219 310.609375 191.496094 C 310.46875 192.914062 310.363281 194.339844 310.296875 195.765625 C 310.226562 197.191406 310.191406 198.617188 310.191406 200.046875 Z M 310.191406 200.046875 " fill-opacity="1" fill-rule="nonzero"/><path fill="#ffffff" d="M 199.730469 112.78125 L 199.730469 297.300781 C 198.304688 297.300781 196.875 297.265625 195.449219 297.195312 C 194.023438 297.125 192.597656 297.023438 191.175781 296.882812 C 189.753906 296.742188 188.335938 296.566406 186.921875 296.359375 C 185.511719 296.148438 184.101562 295.90625 182.703125 295.625 C 181.300781 295.347656 179.90625 295.035156 178.519531 294.6875 C 177.136719 294.339844 175.757812 293.960938 174.390625 293.546875 C 173.023438 293.132812 171.667969 292.683594 170.324219 292.203125 C 168.976562 291.722656 167.644531 291.210938 166.324219 290.664062 C 165.007812 290.117188 163.699219 289.539062 162.410156 288.929688 C 161.117188 288.316406 159.84375 287.675781 158.582031 287.003906 C 157.320312 286.332031 156.078125 285.628906 154.855469 284.894531 C 153.628906 284.160156 152.421875 283.398438 151.234375 282.605469 C 150.046875 281.8125 148.878906 280.988281 147.730469 280.140625 C 146.582031 279.289062 145.457031 278.410156 144.351562 277.503906 C 143.25 276.601562 142.167969 275.667969 141.109375 274.710938 C 140.050781 273.75 139.015625 272.765625 138.007812 271.757812 C 136.996094 270.75 136.011719 269.714844 135.050781 268.65625 C 134.09375 267.601562 133.160156 266.519531 132.253906 265.417969 C 131.347656 264.3125 130.46875 263.1875 129.617188 262.042969 C 128.765625 260.894531 127.945312 259.730469 127.148438 258.542969 C 126.355469 257.355469 125.59375 256.148438 124.859375 254.925781 C 124.125 253.703125 123.417969 252.460938 122.746094 251.199219 C 122.070312 249.941406 121.429688 248.667969 120.820312 247.378906 C 120.207031 246.085938 119.628906 244.78125 119.082031 243.464844 C 118.535156 242.144531 118.023438 240.8125 117.539062 239.46875 C 117.058594 238.125 116.613281 236.773438 116.195312 235.40625 C 115.78125 234.039062 115.402344 232.664062 115.054688 231.28125 C 114.707031 229.894531 114.394531 228.503906 114.117188 227.105469 C 113.835938 225.703125 113.59375 224.296875 113.382812 222.886719 C 113.171875 221.472656 113 220.058594 112.859375 218.636719 C 112.71875 217.21875 112.613281 215.792969 112.542969 214.367188 C 112.472656 212.941406 112.4375 211.515625 112.4375 210.089844 L 112.4375 200.046875 C 112.4375 198.621094 112.472656 197.191406 112.539062 195.765625 C 112.609375 194.339844 112.714844 192.917969 112.855469 191.496094 C 112.992188 190.074219 113.167969 188.65625 113.375 187.246094 C 113.585938 185.832031 113.828125 184.425781 114.105469 183.023438 C 114.382812 181.625 114.695312 180.230469 115.042969 178.847656 C 115.390625 177.460938 115.769531 176.085938 116.183594 174.71875 C 116.597656 173.351562 117.046875 171.996094 117.527344 170.652344 C 118.007812 169.308594 118.519531 167.976562 119.066406 166.65625 C 119.613281 165.335938 120.191406 164.03125 120.800781 162.738281 C 121.414062 161.449219 122.054688 160.171875 122.726562 158.914062 C 123.402344 157.65625 124.105469 156.414062 124.839844 155.1875 C 125.574219 153.960938 126.335938 152.757812 127.132812 151.570312 C 127.925781 150.382812 128.746094 149.214844 129.597656 148.066406 C 130.449219 146.917969 131.328125 145.792969 132.234375 144.691406 C 133.140625 143.585938 134.074219 142.503906 135.03125 141.445312 C 135.992188 140.386719 136.976562 139.355469 137.988281 138.34375 C 138.996094 137.332031 140.03125 136.347656 141.089844 135.390625 C 142.148438 134.429688 143.230469 133.496094 144.335938 132.59375 C 145.441406 131.6875 146.566406 130.808594 147.714844 129.957031 C 148.859375 129.105469 150.027344 128.285156 151.21875 127.488281 C 152.40625 126.695312 153.613281 125.933594 154.839844 125.199219 C 156.0625 124.464844 157.308594 123.757812 158.566406 123.085938 C 159.828125 122.414062 161.101562 121.769531 162.394531 121.160156 C 163.6875 120.550781 164.992188 119.972656 166.3125 119.425781 C 167.632812 118.878906 168.96875 118.363281 170.3125 117.882812 C 171.65625 117.402344 173.015625 116.953125 174.382812 116.539062 C 175.75 116.125 177.125 115.742188 178.511719 115.394531 C 179.898438 115.050781 181.292969 114.734375 182.695312 114.457031 C 184.097656 114.179688 185.503906 113.933594 186.917969 113.726562 C 188.332031 113.515625 189.75 113.339844 191.171875 113.199219 C 192.59375 113.0625 194.019531 112.957031 195.445312 112.886719 C 196.875 112.816406 198.304688 112.78125 199.730469 112.78125 Z M 199.730469 112.78125 " fill-opacity="1" fill-rule="nonzero"/><g fill="#ffffff" fill-opacity="1"><g transform="translate(63.602858, 429.30652)"><g><path d="M 4.304688 0 L 17.335938 0 C 32.949219 0 42.355469 -8.914062 42.355469 -24.589844 C 42.355469 -40.941406 32.644531 -49.179688 17.335938 -49.179688 L 4.304688 -49.179688 C 4.671875 -44.015625 4.796875 -41.558594 4.796875 -37.070312 L 4.796875 -12.109375 C 4.796875 -7.621094 4.671875 -5.164062 4.304688 0 Z M 17.152344 -0.984375 L 10.820312 -0.984375 L 10.820312 -48.195312 L 17.152344 -48.195312 C 28.03125 -48.195312 35.71875 -40.574219 35.71875 -24.589844 C 35.71875 -9.222656 28.03125 -0.984375 17.152344 -0.984375 Z M 17.152344 -0.984375 "/></g></g></g><g fill="#ffffff" fill-opacity="1"><g transform="translate(106.448264, 429.30652)"><g><path d="M 4.304688 -49.179688 C 4.796875 -44.015625 4.855469 -41.558594 4.855469 -37.070312 L 4.855469 -12.109375 C 4.855469 -7.621094 4.796875 -5.164062 4.304688 0 L 33.195312 0 L 34.980469 -3.320312 C 28.09375 -1.289062 23.914062 -0.984375 17.828125 -0.984375 L 10.941406 -0.984375 L 10.941406 -25.574219 L 14.878906 -25.574219 C 18.136719 -25.574219 21.457031 -25.574219 27.171875 -24.960938 L 27.171875 -27.171875 C 21.457031 -26.558594 18.136719 -26.558594 14.878906 -26.558594 L 10.941406 -26.558594 L 10.941406 -48.195312 L 16.535156 -48.195312 C 19.304688 -48.195312 25.328125 -47.828125 30.554688 -45.738281 L 33.320312 -49.179688 Z M 4.304688 -49.179688 "/></g></g></g><g fill="#ffffff" fill-opacity="1"><g transform="translate(140.07288, 429.30652)"><g><path d="M 49.609375 -20.472656 C 46.90625 -8.421875 40.265625 -0.613281 29.507812 -0.613281 C 16.351562 -0.613281 10.328125 -12.171875 10.328125 -25.574219 C 10.328125 -38.730469 17.152344 -49.425781 27.910156 -49.425781 C 35.71875 -49.425781 39.960938 -43.15625 41.863281 -35.347656 L 48.011719 -37.007812 C 43.832031 -45.429688 37.4375 -50.410156 27.910156 -50.410156 C 14.386719 -50.410156 3.6875 -40.144531 3.6875 -25.207031 C 3.6875 -10.265625 12.664062 1.230469 27.972656 1.230469 C 40.636719 1.230469 47.644531 -7.378906 50.472656 -20.472656 Z M 49.609375 -20.472656 "/></g></g></g><g fill="#ffffff" fill-opacity="1"><g transform="translate(189.80315, 429.30652)"><g><path d="M 31.167969 1.230469 C 46.90625 1.230469 58.710938 -9.46875 58.710938 -24.589844 C 58.710938 -39.652344 46.90625 -50.410156 31.167969 -50.410156 C 15.429688 -50.410156 3.6875 -39.652344 3.6875 -24.589844 C 3.6875 -9.46875 15.429688 1.230469 31.167969 1.230469 Z M 31.167969 0.246094 C 18.136719 0.246094 10.328125 -11.617188 10.328125 -24.589844 C 10.328125 -37.5 18.136719 -49.425781 31.167969 -49.425781 C 44.203125 -49.425781 52.070312 -37.5 52.070312 -24.589844 C 52.070312 -11.617188 44.203125 0.246094 31.167969 0.246094 Z M 31.167969 0.246094 "/></g></g></g><g fill="#ffffff" fill-opacity="1"><g transform="translate(263.383998, 429.30652)"><g><path d="M 3.074219 -49.179688 C 4.304688 -46.78125 4.855469 -45.429688 5.59375 -42.601562 L 17.644531 0 L 24.898438 0 C 24.46875 -1.351562 24.46875 -2.027344 24.773438 -3.320312 L 36.023438 -42.972656 C 36.699219 -45.246094 36.886719 -46.476562 38.238281 -49.179688 L 36.394531 -49.179688 C 36.210938 -46.539062 35.65625 -45.246094 35.042969 -42.910156 L 23.484375 -2.089844 L 12.050781 -42.601562 C 11.3125 -45.246094 10.882812 -46.414062 10.757812 -49.179688 Z M 3.074219 -49.179688 "/></g></g></g><g fill="#ffffff" fill-opacity="1"><g transform="translate(301.496068, 429.30652)"><g><path d="M 4.304688 -49.179688 C 4.671875 -44.015625 4.796875 -41.558594 4.796875 -37.070312 L 4.796875 -12.109375 C 4.796875 -7.621094 4.671875 -5.164062 4.304688 0 L 11.3125 0 C 10.941406 -5.164062 10.820312 -7.621094 10.820312 -12.109375 L 10.820312 -37.070312 C 10.820312 -41.558594 10.941406 -44.015625 11.3125 -49.179688 Z M 4.304688 -49.179688 "/></g></g></g><g fill="#ffffff" fill-opacity="1"><g transform="translate(313.912872, 429.30652)"><g><path d="M 2.460938 -14.691406 C 6.640625 -2.828125 13.769531 1.230469 22.4375 1.230469 C 29.9375 1.230469 36.210938 -2.765625 36.210938 -11.003906 C 36.210938 -18.566406 30.738281 -22.378906 20.285156 -30.0625 C 12.664062 -35.65625 9.097656 -37.871094 9.097656 -42.664062 C 9.097656 -46.722656 12.234375 -49.425781 17.519531 -49.425781 C 25.390625 -49.425781 28.585938 -43.21875 29.753906 -37.191406 L 34.671875 -39.039062 C 30.429688 -46.660156 25.082031 -50.410156 17.828125 -50.410156 C 10.695312 -50.410156 5.53125 -46.90625 5.53125 -40.511719 C 5.53125 -34.425781 9.222656 -31.597656 18.011719 -25.082031 C 27.234375 -18.074219 32.707031 -14.445312 32.707031 -9.035156 C 32.707031 -2.828125 28.464844 0.246094 22.808594 0.246094 C 14.691406 0.246094 8.605469 -6.886719 7.378906 -17.089844 Z M 2.460938 -14.691406 "/></g></g></g><g fill="#ffffff" fill-opacity="1"><g transform="translate(349.381666, 429.30652)"><g><path d="M 3.6875 -49.179688 C 4.058594 -44.015625 4.179688 -41.558594 4.179688 -37.070312 L 4.179688 -20.902344 C 4.179688 -3.382812 11.433594 1.230469 22.867188 1.230469 C 33.8125 1.230469 39.222656 -4.796875 39.222656 -20.902344 L 39.222656 -37.070312 C 39.222656 -41.558594 39.28125 -44.015625 39.714844 -49.179688 L 37.746094 -49.179688 C 38.175781 -44.015625 38.238281 -41.558594 38.238281 -37.070312 L 38.238281 -20.902344 C 38.238281 -5.65625 33.320312 -0.308594 23.914062 -0.308594 C 14.199219 -0.308594 10.203125 -6.269531 10.203125 -20.902344 L 10.203125 -37.070312 C 10.203125 -41.558594 10.328125 -44.015625 10.695312 -49.179688 Z M 3.6875 -49.179688 "/></g></g></g><g fill="#ffffff" fill-opacity="1"><g transform="translate(389.583779, 429.30652)"><g><path d="M 35.65625 -6.578125 L 23.667969 -49.179688 L 16.414062 -49.179688 C 16.84375 -47.828125 16.84375 -47.152344 16.535156 -45.859375 L 5.285156 -6.210938 C 4.609375 -3.933594 4.425781 -2.703125 3.074219 0 L 4.855469 0 C 5.101562 -2.644531 5.59375 -3.933594 6.269531 -6.269531 L 9.589844 -17.890625 L 26.066406 -17.890625 L 29.261719 -6.578125 C 30 -3.933594 30.429688 -2.765625 30.554688 0 L 38.238281 0 C 37.007812 -2.398438 36.457031 -3.75 35.65625 -6.578125 Z M 9.835938 -18.875 L 17.828125 -47.089844 L 25.820312 -18.875 Z M 9.835938 -18.875 "/></g></g></g><g fill="#ffffff" fill-opacity="1"><g transform="translate(427.695833, 429.30652)"><g><path d="M 4.425781 -49.179688 C 4.796875 -44.015625 4.917969 -41.558594 4.917969 -37.070312 L 4.917969 -12.109375 C 4.917969 -7.621094 4.796875 -5.164062 4.304688 0 L 31.476562 0 L 33.257812 -3.320312 C 26.375 -1.289062 22.191406 -0.984375 16.105469 -0.984375 L 10.941406 -0.984375 L 10.941406 -37.070312 C 10.941406 -41.558594 11.066406 -44.015625 11.433594 -49.179688 Z M 4.425781 -49.179688 "/></g></g></g><g fill="#ffffff" fill-opacity="1"><g transform="translate(78.176105, 356.013949)"><g><path d="M 4.304688 -49.183594 C 4.796875 -44.019531 4.855469 -41.5625 4.855469 -37.074219 L 4.855469 -12.113281 C 4.855469 -7.625 4.796875 -5.164062 4.304688 0 L 33.199219 0 L 34.980469 -3.320312 C 28.097656 -1.292969 23.914062 -0.984375 17.828125 -0.984375 L 10.945312 -0.984375 L 10.945312 -25.574219 L 14.878906 -25.574219 C 18.136719 -25.574219 21.457031 -25.574219 27.175781 -24.960938 L 27.175781 -27.175781 C 21.457031 -26.558594 18.136719 -26.558594 14.878906 -26.558594 L 10.945312 -26.558594 L 10.945312 -48.199219 L 16.539062 -48.199219 C 19.304688 -48.199219 25.328125 -47.832031 30.554688 -45.742188 L 33.324219 -49.183594 Z M 4.304688 -49.183594 "/></g></g></g><g fill="#ffffff" fill-opacity="1"><g transform="translate(129.141477, 356.013949)"><g><path d="M 2.460938 -14.695312 C 6.640625 -2.828125 13.773438 1.230469 22.441406 1.230469 C 29.941406 1.230469 36.210938 -2.765625 36.210938 -11.003906 C 36.210938 -18.566406 30.738281 -22.378906 20.289062 -30.0625 C 12.664062 -35.660156 9.097656 -37.871094 9.097656 -42.667969 C 9.097656 -46.726562 12.234375 -49.429688 17.523438 -49.429688 C 25.390625 -49.429688 28.589844 -43.222656 29.757812 -37.195312 L 34.675781 -39.039062 C 30.433594 -46.664062 25.085938 -50.414062 17.828125 -50.414062 C 10.699219 -50.414062 5.535156 -46.910156 5.535156 -40.515625 C 5.535156 -34.429688 9.222656 -31.601562 18.015625 -25.085938 C 27.234375 -18.074219 32.707031 -14.449219 32.707031 -9.039062 C 32.707031 -2.828125 28.464844 0.246094 22.808594 0.246094 C 14.695312 0.246094 8.605469 -6.886719 7.378906 -17.089844 Z M 2.460938 -14.695312 "/></g></g></g><g fill="#ffffff" fill-opacity="1"><g transform="translate(181.951144, 356.013949)"><g><path d="M 39.59375 -49.183594 L 1.230469 -49.183594 L 3.933594 -45.742188 C 9.222656 -47.832031 13.957031 -48.199219 16.660156 -48.199219 L 17.398438 -48.199219 L 17.398438 -12.113281 C 17.398438 -7.625 17.277344 -5.164062 16.90625 0 L 23.914062 0 C 23.546875 -5.164062 23.425781 -7.625 23.425781 -12.113281 L 23.425781 -48.199219 L 24.160156 -48.199219 C 26.867188 -48.199219 31.601562 -47.832031 36.886719 -45.742188 Z M 39.59375 -49.183594 "/></g></g></g><g fill="#ffffff" fill-opacity="1"><g transform="translate(236.912495, 356.013949)"><g><path d="M 3.6875 -49.183594 C 4.058594 -44.019531 4.179688 -41.5625 4.179688 -37.074219 L 4.179688 -20.902344 C 4.179688 -3.382812 11.433594 1.230469 22.871094 1.230469 C 33.8125 1.230469 39.222656 -4.796875 39.222656 -20.902344 L 39.222656 -37.074219 C 39.222656 -41.5625 39.285156 -44.019531 39.714844 -49.183594 L 37.75 -49.183594 C 38.179688 -44.019531 38.242188 -41.5625 38.242188 -37.074219 L 38.242188 -20.902344 C 38.242188 -5.65625 33.324219 -0.308594 23.914062 -0.308594 C 14.203125 -0.308594 10.207031 -6.269531 10.207031 -20.902344 L 10.207031 -37.074219 C 10.207031 -41.5625 10.328125 -44.019531 10.699219 -49.183594 Z M 3.6875 -49.183594 "/></g></g></g><g fill="#ffffff" fill-opacity="1"><g transform="translate(294.455864, 356.013949)"><g><path d="M 4.304688 0 L 17.335938 0 C 32.953125 0 42.359375 -8.914062 42.359375 -24.59375 C 42.359375 -40.945312 32.644531 -49.183594 17.335938 -49.183594 L 4.304688 -49.183594 C 4.671875 -44.019531 4.796875 -41.5625 4.796875 -37.074219 L 4.796875 -12.113281 C 4.796875 -7.625 4.671875 -5.164062 4.304688 0 Z M 17.152344 -0.984375 L 10.820312 -0.984375 L 10.820312 -48.199219 L 17.152344 -48.199219 C 28.035156 -48.199219 35.71875 -40.578125 35.71875 -24.59375 C 35.71875 -9.222656 28.035156 -0.984375 17.152344 -0.984375 Z M 17.152344 -0.984375 "/></g></g></g><g fill="#ffffff" fill-opacity="1"><g transform="translate(354.642726, 356.013949)"><g><path d="M 4.304688 -49.183594 C 4.671875 -44.019531 4.796875 -41.5625 4.796875 -37.074219 L 4.796875 -12.113281 C 4.796875 -7.625 4.671875 -5.164062 4.304688 0 L 11.3125 0 C 10.945312 -5.164062 10.820312 -7.625 10.820312 -12.113281 L 10.820312 -37.074219 C 10.820312 -41.5625 10.945312 -44.019531 11.3125 -49.183594 Z M 4.304688 -49.183594 "/></g></g></g><g fill="#ffffff" fill-opacity="1"><g transform="translate(384.398662, 356.013949)"><g><path d="M 31.171875 1.230469 C 46.910156 1.230469 58.714844 -9.46875 58.714844 -24.59375 C 58.714844 -39.65625 46.910156 -50.414062 31.171875 -50.414062 C 15.429688 -50.414062 3.6875 -39.65625 3.6875 -24.59375 C 3.6875 -9.46875 15.429688 1.230469 31.171875 1.230469 Z M 31.171875 0.246094 C 18.136719 0.246094 10.328125 -11.621094 10.328125 -24.59375 C 10.328125 -37.503906 18.136719 -49.429688 31.171875 -49.429688 C 44.203125 -49.429688 52.074219 -37.503906 52.074219 -24.59375 C 52.074219 -11.621094 44.203125 0.246094 31.171875 0.246094 Z M 31.171875 0.246094 "/></g></g></g></svg>