<svg xmlns="http://www.w3.org/2000/svg" xmlns:xlink="http://www.w3.org/1999/xlink" width="200" zoomAndPan="magnify" viewBox="0 0 150 37.5" height="50" preserveAspectRatio="xMidYMid meet" version="1.0"><defs><g/></defs><path fill="#292929" d="M 28.832031 3.726562 C 29.757812 3.722656 30.671875 3.8125 31.582031 3.992188 C 32.488281 4.175781 33.371094 4.441406 34.226562 4.796875 C 35.082031 5.148438 35.894531 5.582031 36.664062 6.097656 C 37.433594 6.613281 38.148438 7.195312 38.800781 7.851562 C 39.457031 8.507812 40.042969 9.21875 40.554688 9.988281 C 41.070312 10.757812 41.503906 11.570312 41.859375 12.425781 C 42.210938 13.28125 42.480469 14.164062 42.660156 15.070312 C 42.839844 15.980469 42.929688 16.898438 42.929688 17.824219 L 28.832031 17.824219 Z M 28.832031 3.726562 " fill-opacity="1" fill-rule="nonzero"/><path fill="#eccaaf" d="M 35.875 20.46875 L 35.878906 20.46875 C 36.273438 20.46875 36.664062 20.507812 37.050781 20.585938 C 37.4375 20.660156 37.816406 20.773438 38.179688 20.925781 C 38.546875 21.078125 38.894531 21.261719 39.222656 21.484375 C 39.550781 21.703125 39.855469 21.953125 40.132812 22.230469 C 40.414062 22.511719 40.664062 22.816406 40.882812 23.144531 C 41.101562 23.472656 41.285156 23.820312 41.4375 24.183594 C 41.589844 24.550781 41.703125 24.925781 41.78125 25.3125 C 41.859375 25.699219 41.894531 26.09375 41.894531 26.488281 C 41.894531 26.882812 41.859375 27.277344 41.78125 27.664062 C 41.703125 28.050781 41.589844 28.425781 41.4375 28.792969 C 41.285156 29.15625 41.101562 29.503906 40.882812 29.832031 C 40.664062 30.160156 40.414062 30.464844 40.132812 30.746094 C 39.855469 31.023438 39.550781 31.273438 39.222656 31.492188 C 38.894531 31.714844 38.546875 31.898438 38.179688 32.050781 C 37.816406 32.203125 37.4375 32.316406 37.050781 32.394531 C 36.664062 32.46875 36.273438 32.507812 35.878906 32.507812 L 35.875 32.507812 C 35.480469 32.507812 35.089844 32.46875 34.699219 32.394531 C 34.3125 32.316406 33.9375 32.203125 33.570312 32.050781 C 33.207031 31.898438 32.859375 31.714844 32.53125 31.492188 C 32.203125 31.273438 31.898438 31.023438 31.621094 30.746094 C 31.339844 30.464844 31.089844 30.160156 30.871094 29.832031 C 30.652344 29.503906 30.464844 29.15625 30.316406 28.792969 C 30.164062 28.425781 30.050781 28.050781 29.972656 27.664062 C 29.894531 27.277344 29.855469 26.882812 29.855469 26.488281 C 29.855469 26.09375 29.894531 25.699219 29.972656 25.3125 C 30.050781 24.925781 30.164062 24.550781 30.316406 24.183594 C 30.464844 23.820312 30.652344 23.472656 30.871094 23.144531 C 31.089844 22.816406 31.339844 22.511719 31.621094 22.230469 C 31.898438 21.953125 32.203125 21.703125 32.53125 21.484375 C 32.859375 21.261719 33.207031 21.078125 33.570312 20.925781 C 33.9375 20.773438 34.3125 20.660156 34.699219 20.585938 C 35.089844 20.507812 35.480469 20.46875 35.875 20.46875 Z M 35.875 20.46875 " fill-opacity="1" fill-rule="nonzero"/><path fill="#292929" d="M 45.128906 17.824219 L 45.128906 19.441406 C 45.128906 20.367188 45.21875 21.285156 45.402344 22.191406 C 45.582031 23.097656 45.847656 23.980469 46.203125 24.835938 C 46.558594 25.691406 46.992188 26.503906 47.503906 27.269531 C 48.019531 28.039062 48.601562 28.753906 49.257812 29.40625 C 49.910156 30.0625 50.625 30.644531 51.394531 31.160156 C 52.164062 31.671875 52.972656 32.105469 53.828125 32.460938 C 54.683594 32.816406 55.566406 33.082031 56.472656 33.261719 C 57.378906 33.445312 58.296875 33.535156 59.222656 33.535156 L 59.222656 3.726562 C 58.296875 3.726562 57.378906 3.816406 56.472656 3.996094 C 55.5625 4.175781 54.683594 4.445312 53.828125 4.796875 C 52.972656 5.152344 52.160156 5.585938 51.390625 6.101562 C 50.621094 6.613281 49.910156 7.199219 49.253906 7.855469 C 48.601562 8.507812 48.015625 9.222656 47.503906 9.992188 C 46.988281 10.761719 46.554688 11.574219 46.199219 12.429688 C 45.847656 13.285156 45.582031 14.164062 45.398438 15.074219 C 45.21875 15.980469 45.128906 16.898438 45.128906 17.824219 Z M 45.128906 17.824219 " fill-opacity="1" fill-rule="nonzero"/><path fill="#292929" d="M 27.300781 3.726562 L 27.300781 33.535156 C 26.375 33.535156 25.460938 33.445312 24.554688 33.261719 C 23.644531 33.082031 22.765625 32.816406 21.910156 32.460938 C 21.054688 32.109375 20.242188 31.671875 19.472656 31.160156 C 18.707031 30.644531 17.992188 30.0625 17.339844 29.40625 C 16.683594 28.753906 16.101562 28.042969 15.585938 27.273438 C 15.074219 26.503906 14.640625 25.691406 14.285156 24.835938 C 13.929688 23.980469 13.664062 23.101562 13.484375 22.195312 C 13.304688 21.285156 13.210938 20.371094 13.210938 19.445312 L 13.210938 17.824219 C 13.210938 16.898438 13.300781 15.980469 13.480469 15.074219 C 13.664062 14.164062 13.929688 13.285156 14.28125 12.429688 C 14.636719 11.574219 15.070312 10.761719 15.585938 9.992188 C 16.097656 9.222656 16.683594 8.507812 17.335938 7.855469 C 17.992188 7.199219 18.703125 6.617188 19.472656 6.101562 C 20.242188 5.585938 21.054688 5.152344 21.910156 4.796875 C 22.761719 4.445312 23.644531 4.175781 24.550781 3.996094 C 25.460938 3.816406 26.375 3.726562 27.300781 3.726562 Z M 27.300781 3.726562 " fill-opacity="1" fill-rule="nonzero"/><g fill="#292929" fill-opacity="1"><g transform="translate(62.172805, 30.755923)"><g><path d="M 0.820312 0 L 3.300781 0 C 6.269531 0 8.0625 -1.695312 8.0625 -4.679688 C 8.0625 -7.792969 6.210938 -9.359375 3.300781 -9.359375 L 0.820312 -9.359375 C 0.890625 -8.378906 0.914062 -7.910156 0.914062 -7.054688 L 0.914062 -2.304688 C 0.914062 -1.449219 0.890625 -0.984375 0.820312 0 Z M 3.265625 -0.1875 L 2.058594 -0.1875 L 2.058594 -9.171875 L 3.265625 -9.171875 C 5.335938 -9.171875 6.796875 -7.722656 6.796875 -4.679688 C 6.796875 -1.753906 5.335938 -0.1875 3.265625 -0.1875 Z M 3.265625 -0.1875 "/></g></g></g><g fill="#292929" fill-opacity="1"><g transform="translate(70.327869, 30.755923)"><g><path d="M 0.820312 -9.359375 C 0.914062 -8.378906 0.925781 -7.910156 0.925781 -7.054688 L 0.925781 -2.304688 C 0.925781 -1.449219 0.914062 -0.984375 0.820312 0 L 6.316406 0 L 6.65625 -0.632812 C 5.347656 -0.246094 4.550781 -0.1875 3.394531 -0.1875 L 2.082031 -0.1875 L 2.082031 -4.867188 L 2.832031 -4.867188 C 3.453125 -4.867188 4.082031 -4.867188 5.171875 -4.75 L 5.171875 -5.171875 C 4.082031 -5.054688 3.453125 -5.054688 2.832031 -5.054688 L 2.082031 -5.054688 L 2.082031 -9.171875 L 3.148438 -9.171875 C 3.675781 -9.171875 4.820312 -9.101562 5.816406 -8.703125 L 6.339844 -9.359375 Z M 0.820312 -9.359375 "/></g></g></g><g fill="#292929" fill-opacity="1"><g transform="translate(76.727895, 30.755923)"><g><path d="M 9.441406 -3.894531 C 8.925781 -1.601562 7.664062 -0.117188 5.617188 -0.117188 C 3.113281 -0.117188 1.964844 -2.316406 1.964844 -4.867188 C 1.964844 -7.371094 3.265625 -9.40625 5.3125 -9.40625 C 6.796875 -9.40625 7.605469 -8.214844 7.96875 -6.726562 L 9.136719 -7.042969 C 8.34375 -8.644531 7.125 -9.59375 5.3125 -9.59375 C 2.738281 -9.59375 0.703125 -7.640625 0.703125 -4.796875 C 0.703125 -1.953125 2.410156 0.234375 5.324219 0.234375 C 7.734375 0.234375 9.066406 -1.402344 9.605469 -3.894531 Z M 9.441406 -3.894531 "/></g></g></g><g fill="#292929" fill-opacity="1"><g transform="translate(86.193383, 30.755923)"><g><path d="M 5.933594 0.234375 C 8.925781 0.234375 11.171875 -1.800781 11.171875 -4.679688 C 11.171875 -7.546875 8.925781 -9.59375 5.933594 -9.59375 C 2.9375 -9.59375 0.703125 -7.546875 0.703125 -4.679688 C 0.703125 -1.800781 2.9375 0.234375 5.933594 0.234375 Z M 5.933594 0.046875 C 3.453125 0.046875 1.964844 -2.210938 1.964844 -4.679688 C 1.964844 -7.136719 3.453125 -9.40625 5.933594 -9.40625 C 8.414062 -9.40625 9.910156 -7.136719 9.910156 -4.679688 C 9.910156 -2.210938 8.414062 0.046875 5.933594 0.046875 Z M 5.933594 0.046875 "/></g></g></g><g fill="#292929" fill-opacity="1"><g transform="translate(97.460707, 30.755923)"><g/></g></g><g fill="#292929" fill-opacity="1"><g transform="translate(100.198559, 30.755923)"><g><path d="M 0.585938 -9.359375 C 0.820312 -8.902344 0.925781 -8.644531 1.066406 -8.109375 L 3.359375 0 L 4.738281 0 C 4.65625 -0.257812 4.65625 -0.386719 4.714844 -0.632812 L 6.855469 -8.179688 C 6.984375 -8.613281 7.019531 -8.84375 7.277344 -9.359375 L 6.925781 -9.359375 C 6.890625 -8.855469 6.785156 -8.613281 6.667969 -8.167969 L 4.46875 -0.398438 L 2.292969 -8.109375 C 2.152344 -8.613281 2.070312 -8.832031 2.046875 -9.359375 Z M 0.585938 -9.359375 "/></g></g></g><g fill="#292929" fill-opacity="1"><g transform="translate(107.452705, 30.755923)"><g><path d="M 0.820312 -9.359375 C 0.890625 -8.378906 0.914062 -7.910156 0.914062 -7.054688 L 0.914062 -2.304688 C 0.914062 -1.449219 0.890625 -0.984375 0.820312 0 L 2.152344 0 C 2.082031 -0.984375 2.058594 -1.449219 2.058594 -2.304688 L 2.058594 -7.054688 C 2.058594 -7.910156 2.082031 -8.378906 2.152344 -9.359375 Z M 0.820312 -9.359375 "/></g></g></g><g fill="#292929" fill-opacity="1"><g transform="translate(109.816151, 30.755923)"><g><path d="M 0.46875 -2.796875 C 1.261719 -0.539062 2.621094 0.234375 4.269531 0.234375 C 5.699219 0.234375 6.890625 -0.527344 6.890625 -2.09375 C 6.890625 -3.535156 5.851562 -4.257812 3.859375 -5.722656 C 2.410156 -6.785156 1.730469 -7.207031 1.730469 -8.121094 C 1.730469 -8.890625 2.328125 -9.40625 3.335938 -9.40625 C 4.832031 -9.40625 5.441406 -8.226562 5.664062 -7.078125 L 6.597656 -7.429688 C 5.792969 -8.878906 4.773438 -9.59375 3.394531 -9.59375 C 2.035156 -9.59375 1.054688 -8.925781 1.054688 -7.710938 C 1.054688 -6.550781 1.753906 -6.015625 3.429688 -4.773438 C 5.183594 -3.441406 6.222656 -2.75 6.222656 -1.71875 C 6.222656 -0.539062 5.417969 0.046875 4.339844 0.046875 C 2.796875 0.046875 1.636719 -1.308594 1.402344 -3.253906 Z M 0.46875 -2.796875 "/></g></g></g><g fill="#292929" fill-opacity="1"><g transform="translate(116.567185, 30.755923)"><g><path d="M 0.703125 -9.359375 C 0.773438 -8.378906 0.796875 -7.910156 0.796875 -7.054688 L 0.796875 -3.976562 C 0.796875 -0.644531 2.175781 0.234375 4.351562 0.234375 C 6.433594 0.234375 7.464844 -0.914062 7.464844 -3.976562 L 7.464844 -7.054688 C 7.464844 -7.910156 7.476562 -8.378906 7.558594 -9.359375 L 7.183594 -9.359375 C 7.265625 -8.378906 7.277344 -7.910156 7.277344 -7.054688 L 7.277344 -3.976562 C 7.277344 -1.078125 6.339844 -0.0585938 4.550781 -0.0585938 C 2.703125 -0.0585938 1.941406 -1.195312 1.941406 -3.976562 L 1.941406 -7.054688 C 1.941406 -7.910156 1.964844 -8.378906 2.035156 -9.359375 Z M 0.703125 -9.359375 "/></g></g></g><g fill="#292929" fill-opacity="1"><g transform="translate(124.219137, 30.755923)"><g><path d="M 6.785156 -1.25 L 4.503906 -9.359375 L 3.125 -9.359375 C 3.207031 -9.101562 3.207031 -8.972656 3.148438 -8.726562 L 1.007812 -1.183594 C 0.878906 -0.75 0.84375 -0.515625 0.585938 0 L 0.925781 0 C 0.972656 -0.503906 1.066406 -0.75 1.195312 -1.195312 L 1.824219 -3.40625 L 4.960938 -3.40625 L 5.570312 -1.25 C 5.710938 -0.75 5.792969 -0.527344 5.816406 0 L 7.277344 0 C 7.042969 -0.457031 6.9375 -0.714844 6.785156 -1.25 Z M 1.871094 -3.59375 L 3.394531 -8.960938 L 4.914062 -3.59375 Z M 1.871094 -3.59375 "/></g></g></g><g fill="#292929" fill-opacity="1"><g transform="translate(131.473282, 30.755923)"><g><path d="M 0.84375 -9.359375 C 0.914062 -8.378906 0.9375 -7.910156 0.9375 -7.054688 L 0.9375 -2.304688 C 0.9375 -1.449219 0.914062 -0.984375 0.820312 0 L 5.992188 0 L 6.328125 -0.632812 C 5.019531 -0.246094 4.222656 -0.1875 3.066406 -0.1875 L 2.082031 -0.1875 L 2.082031 -7.054688 C 2.082031 -7.910156 2.105469 -8.378906 2.175781 -9.359375 Z M 0.84375 -9.359375 "/></g></g></g><g fill="#292929" fill-opacity="1"><g transform="translate(61.879574, 16.897625)"><g><path d="M 0.816406 -9.351562 C 0.910156 -8.367188 0.921875 -7.902344 0.921875 -7.046875 L 0.921875 -2.300781 C 0.921875 -1.449219 0.910156 -0.980469 0.816406 0 L 6.3125 0 L 6.648438 -0.632812 C 5.339844 -0.246094 4.546875 -0.1875 3.390625 -0.1875 L 2.082031 -0.1875 L 2.082031 -4.863281 L 2.828125 -4.863281 C 3.449219 -4.863281 4.078125 -4.863281 5.164062 -4.746094 L 5.164062 -5.164062 C 4.078125 -5.050781 3.449219 -5.050781 2.828125 -5.050781 L 2.082031 -5.050781 L 2.082031 -9.164062 L 3.144531 -9.164062 C 3.671875 -9.164062 4.816406 -9.09375 5.808594 -8.695312 L 6.335938 -9.351562 Z M 0.816406 -9.351562 "/></g></g></g><g fill="#292929" fill-opacity="1"><g transform="translate(71.568381, 16.897625)"><g><path d="M 0.46875 -2.792969 C 1.261719 -0.539062 2.617188 0.234375 4.265625 0.234375 C 5.691406 0.234375 6.882812 -0.527344 6.882812 -2.09375 C 6.882812 -3.53125 5.84375 -4.253906 3.855469 -5.714844 C 2.40625 -6.777344 1.730469 -7.199219 1.730469 -8.109375 C 1.730469 -8.882812 2.324219 -9.398438 3.332031 -9.398438 C 4.828125 -9.398438 5.433594 -8.214844 5.65625 -7.070312 L 6.59375 -7.421875 C 5.785156 -8.871094 4.769531 -9.582031 3.390625 -9.582031 C 2.035156 -9.582031 1.050781 -8.917969 1.050781 -7.703125 C 1.050781 -6.546875 1.753906 -6.007812 3.425781 -4.769531 C 5.175781 -3.4375 6.21875 -2.746094 6.21875 -1.71875 C 6.21875 -0.539062 5.410156 0.046875 4.335938 0.046875 C 2.792969 0.046875 1.636719 -1.308594 1.402344 -3.25 Z M 0.46875 -2.792969 "/></g></g></g><g fill="#292929" fill-opacity="1"><g transform="translate(81.6078, 16.897625)"><g><path d="M 7.527344 -9.351562 L 0.234375 -9.351562 L 0.746094 -8.695312 C 1.753906 -9.09375 2.652344 -9.164062 3.167969 -9.164062 L 3.308594 -9.164062 L 3.308594 -2.300781 C 3.308594 -1.449219 3.285156 -0.980469 3.214844 0 L 4.546875 0 C 4.476562 -0.980469 4.453125 -1.449219 4.453125 -2.300781 L 4.453125 -9.164062 L 4.59375 -9.164062 C 5.109375 -9.164062 6.007812 -9.09375 7.011719 -8.695312 Z M 7.527344 -9.351562 "/></g></g></g><g fill="#292929" fill-opacity="1"><g transform="translate(92.056266, 16.897625)"><g><path d="M 0.703125 -9.351562 C 0.769531 -8.367188 0.792969 -7.902344 0.792969 -7.046875 L 0.792969 -3.972656 C 0.792969 -0.644531 2.175781 0.234375 4.347656 0.234375 C 6.429688 0.234375 7.457031 -0.910156 7.457031 -3.972656 L 7.457031 -7.046875 C 7.457031 -7.902344 7.46875 -8.367188 7.550781 -9.351562 L 7.175781 -9.351562 C 7.257812 -8.367188 7.269531 -7.902344 7.269531 -7.046875 L 7.269531 -3.972656 C 7.269531 -1.074219 6.335938 -0.0585938 4.546875 -0.0585938 C 2.699219 -0.0585938 1.941406 -1.191406 1.941406 -3.972656 L 1.941406 -7.046875 C 1.941406 -7.902344 1.964844 -8.367188 2.035156 -9.351562 Z M 0.703125 -9.351562 "/></g></g></g><g fill="#292929" fill-opacity="1"><g transform="translate(102.995588, 16.897625)"><g><path d="M 0.816406 0 L 3.296875 0 C 6.265625 0 8.054688 -1.695312 8.054688 -4.675781 C 8.054688 -7.785156 6.207031 -9.351562 3.296875 -9.351562 L 0.816406 -9.351562 C 0.886719 -8.367188 0.910156 -7.902344 0.910156 -7.046875 L 0.910156 -2.300781 C 0.910156 -1.449219 0.886719 -0.980469 0.816406 0 Z M 3.261719 -0.1875 L 2.058594 -0.1875 L 2.058594 -9.164062 L 3.261719 -9.164062 C 5.328125 -9.164062 6.789062 -7.714844 6.789062 -4.675781 C 6.789062 -1.753906 5.328125 -0.1875 3.261719 -0.1875 Z M 3.261719 -0.1875 "/></g></g></g><g fill="#292929" fill-opacity="1"><g transform="translate(114.437454, 16.897625)"><g><path d="M 0.816406 -9.351562 C 0.886719 -8.367188 0.910156 -7.902344 0.910156 -7.046875 L 0.910156 -2.300781 C 0.910156 -1.449219 0.886719 -0.980469 0.816406 0 L 2.152344 0 C 2.082031 -0.980469 2.058594 -1.449219 2.058594 -2.300781 L 2.058594 -7.046875 C 2.058594 -7.902344 2.082031 -8.367188 2.152344 -9.351562 Z M 0.816406 -9.351562 "/></g></g></g><g fill="#292929" fill-opacity="1"><g transform="translate(120.094227, 16.897625)"><g><path d="M 5.925781 0.234375 C 8.917969 0.234375 11.160156 -1.800781 11.160156 -4.675781 C 11.160156 -7.539062 8.917969 -9.582031 5.925781 -9.582031 C 2.933594 -9.582031 0.703125 -7.539062 0.703125 -4.675781 C 0.703125 -1.800781 2.933594 0.234375 5.925781 0.234375 Z M 5.925781 0.046875 C 3.449219 0.046875 1.964844 -2.210938 1.964844 -4.675781 C 1.964844 -7.128906 3.449219 -9.398438 5.925781 -9.398438 C 8.402344 -9.398438 9.898438 -7.128906 9.898438 -4.675781 C 9.898438 -2.210938 8.402344 0.046875 5.925781 0.046875 Z M 5.925781 0.046875 "/></g></g></g></svg>