<svg xmlns="http://www.w3.org/2000/svg" xmlns:xlink="http://www.w3.org/1999/xlink" width="700" zoomAndPan="magnify" viewBox="0 0 525 525.000007" height="700" preserveAspectRatio="xMidYMid meet" version="1.0"><path fill="#292929" d="M 182.898438 111.90625 C 185.242188 111.90625 187.585938 111.960938 189.925781 112.074219 C 192.265625 112.1875 194.601562 112.359375 196.9375 112.589844 C 199.269531 112.816406 201.59375 113.101562 203.914062 113.445312 C 206.230469 113.789062 208.539062 114.1875 210.839844 114.644531 C 213.136719 115.101562 215.425781 115.613281 217.699219 116.179688 C 219.972656 116.75 222.230469 117.375 224.472656 118.054688 C 226.71875 118.730469 228.941406 119.464844 231.148438 120.253906 C 233.355469 121.042969 235.542969 121.886719 237.710938 122.78125 C 239.875 123.679688 242.015625 124.628906 244.136719 125.628906 C 246.253906 126.632812 248.347656 127.683594 250.417969 128.789062 C 252.484375 129.894531 254.523438 131.046875 256.53125 132.253906 C 258.542969 133.457031 260.523438 134.710938 262.472656 136.011719 C 264.421875 137.3125 266.335938 138.664062 268.21875 140.058594 C 270.101562 141.453125 271.949219 142.894531 273.761719 144.382812 C 275.574219 145.871094 277.347656 147.398438 279.085938 148.972656 C 280.820312 150.546875 282.519531 152.164062 284.175781 153.820312 C 285.832031 155.480469 287.449219 157.175781 289.023438 158.914062 C 290.597656 160.648438 292.128906 162.421875 293.613281 164.234375 C 295.101562 166.046875 296.542969 167.894531 297.9375 169.777344 C 299.335938 171.660156 300.683594 173.574219 301.984375 175.523438 C 303.289062 177.472656 304.539062 179.453125 305.746094 181.464844 C 306.949219 183.476562 308.105469 185.515625 309.207031 187.582031 C 310.3125 189.648438 311.367188 191.742188 312.367188 193.863281 C 313.371094 195.980469 314.316406 198.121094 315.214844 200.289062 C 316.109375 202.453125 316.953125 204.640625 317.742188 206.847656 C 318.53125 209.054688 319.265625 211.28125 319.945312 213.523438 C 320.625 215.765625 321.25 218.023438 321.816406 220.300781 C 322.386719 222.574219 322.898438 224.859375 323.355469 227.160156 C 323.808594 229.457031 324.210938 231.765625 324.550781 234.085938 C 324.894531 236.402344 325.179688 238.730469 325.410156 241.0625 C 325.636719 243.394531 325.808594 245.730469 325.921875 248.074219 C 326.035156 250.414062 326.09375 252.757812 326.089844 255.101562 L 182.898438 255.101562 Z M 182.898438 111.90625 " fill-opacity="1" fill-rule="nonzero"/><path fill="#eccaaf" d="M 254.449219 281.972656 L 254.472656 281.972656 C 256.472656 281.972656 258.472656 282.070312 260.464844 282.269531 C 262.457031 282.464844 264.433594 282.757812 266.398438 283.148438 C 268.363281 283.539062 270.300781 284.023438 272.21875 284.605469 C 274.132812 285.1875 276.019531 285.859375 277.867188 286.628906 C 279.71875 287.394531 281.523438 288.25 283.289062 289.191406 C 285.058594 290.136719 286.773438 291.164062 288.4375 292.277344 C 290.101562 293.390625 291.707031 294.582031 293.253906 295.851562 C 294.804688 297.121094 296.285156 298.464844 297.699219 299.878906 C 299.117188 301.296875 300.460938 302.777344 301.730469 304.324219 C 303 305.871094 304.191406 307.480469 305.304688 309.144531 C 306.417969 310.808594 307.445312 312.523438 308.386719 314.289062 C 309.332031 316.054688 310.1875 317.863281 310.953125 319.714844 C 311.71875 321.5625 312.394531 323.445312 312.972656 325.363281 C 313.554688 327.277344 314.042969 329.21875 314.433594 331.179688 C 314.824219 333.144531 315.117188 335.125 315.3125 337.117188 C 315.507812 339.109375 315.605469 341.105469 315.605469 343.109375 L 315.605469 343.128906 C 315.605469 345.132812 315.507812 347.128906 315.3125 349.121094 C 315.117188 351.113281 314.824219 353.09375 314.433594 355.058594 C 314.042969 357.019531 313.554688 358.960938 312.972656 360.875 C 312.394531 362.792969 311.71875 364.675781 310.953125 366.527344 C 310.1875 368.375 309.332031 370.183594 308.386719 371.949219 C 307.445312 373.714844 306.417969 375.429688 305.304688 377.09375 C 304.191406 378.757812 303 380.367188 301.730469 381.914062 C 300.460938 383.460938 299.117188 384.941406 297.699219 386.359375 C 296.285156 387.773438 294.804688 389.117188 293.253906 390.386719 C 291.707031 391.660156 290.101562 392.847656 288.4375 393.960938 C 286.773438 395.074219 285.058594 396.101562 283.289062 397.046875 C 281.523438 397.988281 279.71875 398.84375 277.867188 399.613281 C 276.019531 400.378906 274.132812 401.050781 272.21875 401.632812 C 270.300781 402.214844 268.363281 402.699219 266.398438 403.089844 C 264.433594 403.480469 262.457031 403.773438 260.464844 403.96875 C 258.472656 404.167969 256.472656 404.265625 254.472656 404.265625 L 254.449219 404.265625 C 252.449219 404.265625 250.449219 404.167969 248.457031 403.96875 C 246.464844 403.773438 244.488281 403.480469 242.523438 403.089844 C 240.558594 402.699219 238.621094 402.214844 236.703125 401.632812 C 234.789062 401.050781 232.90625 400.378906 231.054688 399.613281 C 229.203125 398.84375 227.398438 397.988281 225.632812 397.046875 C 223.867188 396.101562 222.148438 395.074219 220.484375 393.960938 C 218.820312 392.847656 217.214844 391.660156 215.667969 390.386719 C 214.117188 389.117188 212.636719 387.773438 211.222656 386.359375 C 209.804688 384.941406 208.460938 383.460938 207.191406 381.914062 C 205.921875 380.367188 204.730469 378.757812 203.617188 377.09375 C 202.507812 375.429688 201.476562 373.714844 200.535156 371.949219 C 199.589844 370.183594 198.734375 368.375 197.96875 366.527344 C 197.203125 364.675781 196.527344 362.792969 195.949219 360.875 C 195.367188 358.960938 194.878906 357.019531 194.488281 355.058594 C 194.097656 353.09375 193.804688 351.113281 193.609375 349.121094 C 193.414062 347.128906 193.316406 345.132812 193.316406 343.128906 L 193.316406 343.109375 C 193.316406 341.105469 193.414062 339.109375 193.609375 337.117188 C 193.804688 335.125 194.097656 333.144531 194.488281 331.179688 C 194.878906 329.21875 195.367188 327.277344 195.949219 325.363281 C 196.527344 323.445312 197.203125 321.5625 197.96875 319.714844 C 198.734375 317.863281 199.589844 316.054688 200.535156 314.289062 C 201.476562 312.523438 202.507812 310.808594 203.617188 309.144531 C 204.730469 307.480469 205.921875 305.871094 207.191406 304.324219 C 208.460938 302.777344 209.804688 301.296875 211.222656 299.878906 C 212.636719 298.464844 214.117188 297.121094 215.667969 295.851562 C 217.214844 294.582031 218.820312 293.390625 220.484375 292.277344 C 222.148438 291.164062 223.867188 290.136719 225.632812 289.191406 C 227.398438 288.25 229.203125 287.394531 231.054688 286.628906 C 232.90625 285.859375 234.789062 285.1875 236.703125 284.605469 C 238.621094 284.023438 240.558594 283.539062 242.523438 283.148438 C 244.488281 282.757812 246.464844 282.464844 248.457031 282.269531 C 250.449219 282.070312 252.449219 281.972656 254.449219 281.972656 Z M 254.449219 281.972656 " fill-opacity="1" fill-rule="nonzero"/><path fill="#292929" d="M 348.453125 255.101562 L 348.453125 271.554688 C 348.453125 273.898438 348.511719 276.238281 348.625 278.578125 C 348.738281 280.917969 348.910156 283.253906 349.140625 285.585938 C 349.371094 287.914062 349.65625 290.238281 350 292.558594 C 350.34375 294.875 350.746094 297.179688 351.203125 299.480469 C 351.660156 301.777344 352.171875 304.0625 352.742188 306.332031 C 353.3125 308.605469 353.933594 310.863281 354.617188 313.101562 C 355.296875 315.34375 356.03125 317.570312 356.820312 319.773438 C 357.609375 321.980469 358.449219 324.164062 359.347656 326.328125 C 360.242188 328.492188 361.191406 330.632812 362.195312 332.75 C 363.195312 334.867188 364.25 336.960938 365.351562 339.023438 C 366.457031 341.089844 367.609375 343.128906 368.816406 345.136719 C 370.019531 347.148438 371.273438 349.125 372.574219 351.074219 C 373.875 353.019531 375.222656 354.933594 376.617188 356.816406 C 378.015625 358.699219 379.453125 360.542969 380.941406 362.355469 C 382.425781 364.164062 383.957031 365.9375 385.527344 367.675781 C 387.101562 369.410156 388.71875 371.105469 390.375 372.761719 C 392.03125 374.417969 393.726562 376.03125 395.460938 377.605469 C 397.195312 379.179688 398.96875 380.707031 400.78125 382.195312 C 402.589844 383.679688 404.4375 385.121094 406.320312 386.515625 C 408.199219 387.910156 410.113281 389.261719 412.0625 390.5625 C 414.011719 391.863281 415.988281 393.117188 417.996094 394.320312 C 420.007812 395.523438 422.042969 396.679688 424.109375 397.78125 C 426.175781 398.886719 428.265625 399.941406 430.382812 400.941406 C 432.503906 401.941406 434.644531 402.890625 436.808594 403.789062 C 438.972656 404.683594 441.15625 405.527344 443.359375 406.316406 C 445.566406 407.105469 447.789062 407.839844 450.03125 408.519531 C 452.273438 409.199219 454.53125 409.824219 456.800781 410.394531 C 459.074219 410.960938 461.359375 411.476562 463.65625 411.933594 C 465.953125 412.390625 468.261719 412.789062 470.578125 413.132812 C 472.894531 413.476562 475.21875 413.765625 477.550781 413.992188 C 479.882812 414.222656 482.214844 414.394531 484.554688 414.511719 C 486.894531 414.625 489.238281 414.683594 491.578125 414.683594 L 491.578125 111.90625 C 489.234375 111.90625 486.894531 111.964844 484.554688 112.078125 C 482.214844 112.195312 479.878906 112.367188 477.546875 112.597656 C 475.214844 112.828125 472.890625 113.113281 470.570312 113.457031 C 468.253906 113.800781 465.945312 114.203125 463.648438 114.660156 C 461.351562 115.117188 459.066406 115.628906 456.792969 116.199219 C 454.519531 116.769531 452.261719 117.394531 450.019531 118.074219 C 447.777344 118.753906 445.554688 119.488281 443.347656 120.277344 C 441.140625 121.066406 438.957031 121.910156 436.792969 122.808594 C 434.625 123.703125 432.484375 124.65625 430.367188 125.65625 C 428.25 126.660156 426.15625 127.710938 424.089844 128.816406 C 422.023438 129.921875 419.988281 131.078125 417.976562 132.28125 C 415.96875 133.484375 413.988281 134.738281 412.042969 136.042969 C 410.09375 137.34375 408.179688 138.691406 406.296875 140.089844 C 404.414062 141.484375 402.570312 142.925781 400.757812 144.414062 C 398.945312 145.898438 397.171875 147.429688 395.4375 149.003906 C 393.703125 150.578125 392.007812 152.195312 390.351562 153.851562 C 388.691406 155.507812 387.078125 157.207031 385.503906 158.941406 C 383.933594 160.679688 382.402344 162.453125 380.917969 164.265625 C 379.429688 166.074219 377.992188 167.921875 376.59375 169.804688 C 375.199219 171.6875 373.851562 173.601562 372.550781 175.550781 C 371.25 177.5 369.996094 179.480469 368.792969 181.488281 C 367.589844 183.5 366.433594 185.539062 365.332031 187.605469 C 364.226562 189.671875 363.175781 191.765625 362.171875 193.882812 C 361.171875 196 360.222656 198.140625 359.328125 200.308594 C 358.433594 202.472656 357.589844 204.65625 356.800781 206.863281 C 356.011719 209.070312 355.277344 211.296875 354.601562 213.539062 C 353.921875 215.78125 353.296875 218.039062 352.726562 220.3125 C 352.160156 222.585938 351.648438 224.871094 351.191406 227.167969 C 350.734375 229.464844 350.335938 231.773438 349.992188 234.09375 C 349.648438 236.410156 349.363281 238.734375 349.136719 241.066406 C 348.90625 243.398438 348.734375 245.734375 348.621094 248.074219 C 348.507812 250.414062 348.453125 252.757812 348.453125 255.101562 Z M 348.453125 255.101562 " fill-opacity="1" fill-rule="nonzero"/><path fill="#292929" d="M 167.371094 111.90625 L 167.371094 414.683594 C 165.027344 414.683594 162.6875 414.625 160.347656 414.511719 C 158.011719 414.394531 155.675781 414.222656 153.34375 413.992188 C 151.011719 413.765625 148.691406 413.476562 146.371094 413.132812 C 144.054688 412.789062 141.75 412.390625 139.453125 411.933594 C 137.15625 411.476562 134.871094 410.964844 132.597656 410.394531 C 130.328125 409.824219 128.070312 409.199219 125.828125 408.519531 C 123.589844 407.839844 121.367188 407.105469 119.160156 406.316406 C 116.957031 405.527344 114.769531 404.6875 112.605469 403.789062 C 110.441406 402.894531 108.304688 401.945312 106.1875 400.941406 C 104.070312 399.941406 101.976562 398.890625 99.910156 397.785156 C 97.847656 396.679688 95.808594 395.527344 93.800781 394.324219 C 91.792969 393.117188 89.8125 391.867188 87.867188 390.566406 C 85.917969 389.265625 84.003906 387.914062 82.125 386.519531 C 80.242188 385.125 78.398438 383.683594 76.585938 382.199219 C 74.777344 380.714844 73.003906 379.183594 71.269531 377.613281 C 69.53125 376.039062 67.835938 374.425781 66.179688 372.769531 C 64.523438 371.113281 62.910156 369.417969 61.335938 367.679688 C 59.765625 365.945312 58.234375 364.171875 56.75 362.363281 C 55.261719 360.550781 53.824219 358.707031 52.429688 356.824219 C 51.03125 354.945312 49.683594 353.03125 48.382812 351.082031 C 47.082031 349.136719 45.828125 347.15625 44.625 345.148438 C 43.421875 343.140625 42.269531 341.101562 41.164062 339.035156 C 40.058594 336.972656 39.007812 334.878906 38.003906 332.761719 C 37.003906 330.644531 36.054688 328.503906 35.160156 326.339844 C 34.261719 324.179688 33.421875 321.992188 32.632812 319.789062 C 31.84375 317.582031 31.109375 315.359375 30.429688 313.117188 C 29.75 310.878906 29.125 308.621094 28.554688 306.347656 C 27.984375 304.078125 27.472656 301.792969 27.015625 299.496094 C 26.558594 297.199219 26.160156 294.890625 25.816406 292.574219 C 25.472656 290.257812 25.183594 287.933594 24.957031 285.605469 C 24.726562 283.273438 24.554688 280.9375 24.4375 278.601562 C 24.324219 276.261719 24.265625 273.921875 24.265625 271.578125 L 24.265625 255.101562 C 24.265625 252.757812 24.320312 250.414062 24.433594 248.074219 C 24.546875 245.734375 24.71875 243.398438 24.945312 241.066406 C 25.175781 238.734375 25.460938 236.410156 25.804688 234.09375 C 26.144531 231.773438 26.542969 229.46875 27 227.167969 C 27.457031 224.871094 27.96875 222.585938 28.535156 220.3125 C 29.105469 218.039062 29.726562 215.78125 30.40625 213.539062 C 31.085938 211.296875 31.820312 209.074219 32.609375 206.867188 C 33.394531 204.660156 34.238281 202.472656 35.132812 200.308594 C 36.03125 198.144531 36.976562 196.003906 37.976562 193.882812 C 38.980469 191.765625 40.03125 189.671875 41.136719 187.605469 C 42.238281 185.539062 43.390625 183.5 44.597656 181.492188 C 45.800781 179.480469 47.050781 177.5 48.351562 175.554688 C 49.652344 173.605469 51 171.6875 52.398438 169.804688 C 53.792969 167.925781 55.230469 166.078125 56.71875 164.265625 C 58.203125 162.453125 59.734375 160.679688 61.304688 158.941406 C 62.878906 157.207031 64.492188 155.507812 66.148438 153.851562 C 67.804688 152.195312 69.5 150.578125 71.238281 149.003906 C 72.972656 147.433594 74.746094 145.902344 76.554688 144.414062 C 78.367188 142.929688 80.214844 141.488281 82.09375 140.089844 C 83.976562 138.695312 85.890625 137.34375 87.839844 136.042969 C 89.785156 134.742188 91.765625 133.488281 93.773438 132.28125 C 95.785156 131.078125 97.820312 129.921875 99.886719 128.816406 C 101.953125 127.710938 104.046875 126.660156 106.164062 125.65625 C 108.28125 124.65625 110.421875 123.707031 112.585938 122.808594 C 114.75 121.910156 116.9375 121.066406 119.140625 120.277344 C 121.347656 119.488281 123.570312 118.753906 125.8125 118.074219 C 128.054688 117.394531 130.3125 116.769531 132.585938 116.199219 C 134.859375 115.628906 137.144531 115.117188 139.441406 114.660156 C 141.738281 114.203125 144.046875 113.800781 146.363281 113.457031 C 148.683594 113.113281 151.007812 112.828125 153.339844 112.597656 C 155.671875 112.367188 158.007812 112.195312 160.347656 112.078125 C 162.6875 111.964844 165.027344 111.90625 167.371094 111.90625 Z M 167.371094 111.90625 " fill-opacity="1" fill-rule="nonzero"/></svg>