<svg xmlns="http://www.w3.org/2000/svg" xmlns:xlink="http://www.w3.org/1999/xlink" width="700" zoomAndPan="magnify" viewBox="0 0 525 525.000007" height="700" preserveAspectRatio="xMidYMid meet" version="1.0"><defs><g/></defs><path fill="#292929" d="M 209.261719 112.816406 C 210.691406 112.8125 212.121094 112.847656 213.550781 112.917969 C 214.980469 112.988281 216.40625 113.089844 217.828125 113.230469 C 219.253906 113.371094 220.671875 113.542969 222.085938 113.753906 C 223.503906 113.960938 224.910156 114.207031 226.316406 114.484375 C 227.71875 114.761719 229.113281 115.078125 230.5 115.421875 C 231.890625 115.769531 233.269531 116.152344 234.636719 116.566406 C 236.007812 116.980469 237.363281 117.429688 238.710938 117.910156 C 240.058594 118.390625 241.394531 118.90625 242.714844 119.453125 C 244.035156 120 245.34375 120.578125 246.636719 121.191406 C 247.929688 121.800781 249.207031 122.445312 250.46875 123.117188 C 251.730469 123.792969 252.976562 124.496094 254.203125 125.230469 C 255.429688 125.96875 256.640625 126.730469 257.828125 127.527344 C 259.019531 128.320312 260.1875 129.144531 261.335938 129.996094 C 262.484375 130.847656 263.613281 131.730469 264.71875 132.636719 C 265.824219 133.542969 266.90625 134.476562 267.96875 135.4375 C 269.027344 136.398438 270.0625 137.386719 271.074219 138.398438 C 272.085938 139.40625 273.074219 140.445312 274.035156 141.503906 C 274.996094 142.5625 275.929688 143.648438 276.835938 144.753906 C 277.742188 145.859375 278.621094 146.984375 279.476562 148.136719 C 280.328125 149.285156 281.148438 150.453125 281.945312 151.644531 C 282.738281 152.832031 283.503906 154.042969 284.238281 155.269531 C 284.976562 156.496094 285.679688 157.738281 286.351562 159 C 287.027344 160.261719 287.671875 161.542969 288.28125 162.835938 C 288.894531 164.128906 289.472656 165.433594 290.019531 166.757812 C 290.566406 168.078125 291.082031 169.414062 291.5625 170.761719 C 292.042969 172.109375 292.492188 173.464844 292.90625 174.835938 C 293.320312 176.203125 293.703125 177.582031 294.046875 178.96875 C 294.394531 180.359375 294.707031 181.753906 294.988281 183.15625 C 295.265625 184.558594 295.507812 185.96875 295.71875 187.382812 C 295.925781 188.800781 296.101562 190.21875 296.242188 191.640625 C 296.378906 193.066406 296.484375 194.492188 296.554688 195.921875 C 296.625 197.351562 296.65625 198.78125 296.65625 200.210938 L 209.261719 200.210938 Z M 209.261719 112.816406 " fill-opacity="1" fill-rule="nonzero"/><path fill="#eccaaf" d="M 252.933594 216.613281 L 252.945312 216.613281 C 254.167969 216.613281 255.386719 216.671875 256.601562 216.792969 C 257.820312 216.910156 259.027344 217.089844 260.226562 217.328125 C 261.421875 217.566406 262.609375 217.863281 263.777344 218.21875 C 264.945312 218.574219 266.09375 218.984375 267.226562 219.453125 C 268.355469 219.921875 269.457031 220.441406 270.535156 221.019531 C 271.613281 221.59375 272.660156 222.222656 273.675781 222.902344 C 274.691406 223.578125 275.671875 224.308594 276.617188 225.082031 C 277.5625 225.855469 278.464844 226.675781 279.328125 227.539062 C 280.195312 228.40625 281.011719 229.308594 281.789062 230.253906 C 282.5625 231.199219 283.292969 232.179688 283.96875 233.195312 C 284.648438 234.210938 285.277344 235.257812 285.851562 236.335938 C 286.429688 237.414062 286.949219 238.515625 287.417969 239.644531 C 287.886719 240.773438 288.296875 241.925781 288.652344 243.09375 C 289.007812 244.261719 289.304688 245.445312 289.542969 246.644531 C 289.78125 247.84375 289.957031 249.050781 290.078125 250.269531 C 290.199219 251.484375 290.257812 252.703125 290.257812 253.925781 L 290.257812 253.9375 C 290.257812 255.160156 290.199219 256.378906 290.078125 257.597656 C 289.957031 258.8125 289.78125 260.019531 289.542969 261.21875 C 289.304688 262.417969 289.007812 263.601562 288.652344 264.769531 C 288.296875 265.9375 287.886719 267.089844 287.417969 268.21875 C 286.949219 269.347656 286.429688 270.449219 285.851562 271.527344 C 285.277344 272.605469 284.648438 273.652344 283.96875 274.667969 C 283.292969 275.683594 282.5625 276.664062 281.789062 277.609375 C 281.011719 278.554688 280.195312 279.457031 279.328125 280.324219 C 278.464844 281.1875 277.5625 282.007812 276.617188 282.78125 C 275.671875 283.558594 274.691406 284.285156 273.675781 284.960938 C 272.660156 285.640625 271.613281 286.269531 270.535156 286.84375 C 269.457031 287.421875 268.355469 287.941406 267.226562 288.410156 C 266.09375 288.878906 264.945312 289.289062 263.777344 289.644531 C 262.609375 290 261.421875 290.296875 260.226562 290.535156 C 259.027344 290.773438 257.820312 290.953125 256.601562 291.070312 C 255.386719 291.191406 254.167969 291.25 252.945312 291.25 L 252.933594 291.25 C 251.710938 291.25 250.492188 291.191406 249.273438 291.070312 C 248.058594 290.953125 246.851562 290.773438 245.652344 290.535156 C 244.453125 290.296875 243.269531 290 242.101562 289.644531 C 240.929688 289.289062 239.78125 288.878906 238.652344 288.410156 C 237.523438 287.941406 236.421875 287.421875 235.34375 286.84375 C 234.265625 286.269531 233.21875 285.640625 232.203125 284.960938 C 231.1875 284.285156 230.207031 283.558594 229.261719 282.78125 C 228.316406 282.007812 227.414062 281.1875 226.546875 280.324219 C 225.683594 279.457031 224.863281 278.554688 224.089844 277.609375 C 223.3125 276.664062 222.585938 275.683594 221.90625 274.667969 C 221.230469 273.652344 220.601562 272.605469 220.027344 271.527344 C 219.449219 270.449219 218.925781 269.347656 218.460938 268.21875 C 217.992188 267.089844 217.582031 265.9375 217.226562 264.769531 C 216.871094 263.601562 216.574219 262.417969 216.335938 261.21875 C 216.097656 260.019531 215.917969 258.8125 215.800781 257.59375 C 215.679688 256.378906 215.621094 255.160156 215.621094 253.9375 L 215.621094 253.925781 C 215.621094 252.703125 215.679688 251.484375 215.800781 250.269531 C 215.917969 249.050781 216.097656 247.84375 216.335938 246.644531 C 216.574219 245.445312 216.871094 244.261719 217.226562 243.09375 C 217.582031 241.925781 217.992188 240.773438 218.460938 239.644531 C 218.925781 238.515625 219.449219 237.414062 220.027344 236.335938 C 220.601562 235.257812 221.230469 234.210938 221.90625 233.195312 C 222.585938 232.179688 223.3125 231.199219 224.089844 230.253906 C 224.863281 229.308594 225.683594 228.40625 226.546875 227.539062 C 227.414062 226.675781 228.316406 225.855469 229.261719 225.082031 C 230.207031 224.308594 231.1875 223.578125 232.203125 222.902344 C 233.21875 222.222656 234.265625 221.59375 235.34375 221.019531 C 236.421875 220.441406 237.523438 219.921875 238.652344 219.453125 C 239.78125 218.984375 240.929688 218.574219 242.101562 218.21875 C 243.269531 217.863281 244.453125 217.566406 245.652344 217.328125 C 246.851562 217.089844 248.058594 216.910156 249.273438 216.792969 C 250.492188 216.671875 251.710938 216.613281 252.933594 216.613281 Z M 252.933594 216.613281 " fill-opacity="1" fill-rule="nonzero"/><path fill="#292929" d="M 310.304688 200.210938 L 310.304688 210.253906 C 310.304688 211.683594 310.339844 213.113281 310.410156 214.539062 C 310.480469 215.96875 310.585938 217.394531 310.726562 218.816406 C 310.867188 220.238281 311.039062 221.65625 311.25 223.070312 C 311.460938 224.484375 311.703125 225.894531 311.984375 227.296875 C 312.261719 228.699219 312.574219 230.09375 312.921875 231.480469 C 313.269531 232.867188 313.652344 234.242188 314.066406 235.613281 C 314.480469 236.980469 314.929688 238.335938 315.410156 239.683594 C 315.894531 241.027344 316.40625 242.363281 316.953125 243.683594 C 317.5 245.003906 318.082031 246.3125 318.691406 247.601562 C 319.304688 248.894531 319.945312 250.171875 320.621094 251.433594 C 321.292969 252.695312 322 253.9375 322.734375 255.164062 C 323.46875 256.390625 324.234375 257.597656 325.027344 258.785156 C 325.820312 259.976562 326.644531 261.144531 327.496094 262.292969 C 328.347656 263.441406 329.226562 264.566406 330.132812 265.671875 C 331.039062 266.777344 331.972656 267.859375 332.933594 268.917969 C 333.894531 269.976562 334.878906 271.011719 335.890625 272.023438 C 336.902344 273.035156 337.9375 274.019531 338.996094 274.980469 C 340.054688 275.941406 341.136719 276.875 342.242188 277.78125 C 343.347656 278.6875 344.476562 279.566406 345.621094 280.417969 C 346.769531 281.269531 347.941406 282.09375 349.128906 282.886719 C 350.316406 283.679688 351.523438 284.445312 352.75 285.179688 C 353.976562 285.917969 355.21875 286.621094 356.480469 287.292969 C 357.742188 287.96875 359.019531 288.609375 360.3125 289.222656 C 361.605469 289.832031 362.910156 290.414062 364.230469 290.960938 C 365.550781 291.507812 366.886719 292.019531 368.230469 292.503906 C 369.578125 292.984375 370.933594 293.433594 372.300781 293.847656 C 373.671875 294.261719 375.046875 294.644531 376.433594 294.992188 C 377.820312 295.339844 379.214844 295.652344 380.617188 295.929688 C 382.019531 296.210938 383.429688 296.453125 384.84375 296.664062 C 386.257812 296.875 387.675781 297.046875 389.097656 297.1875 C 390.519531 297.328125 391.945312 297.433594 393.375 297.503906 C 394.800781 297.574219 396.230469 297.609375 397.660156 297.609375 L 397.660156 112.816406 C 396.230469 112.816406 394.800781 112.851562 393.371094 112.921875 C 391.945312 112.988281 390.519531 113.09375 389.09375 113.234375 C 387.671875 113.375 386.253906 113.550781 384.839844 113.761719 C 383.425781 113.96875 382.015625 114.214844 380.613281 114.496094 C 379.210938 114.773438 377.816406 115.085938 376.429688 115.433594 C 375.042969 115.78125 373.664062 116.164062 372.296875 116.578125 C 370.925781 116.992188 369.570312 117.441406 368.222656 117.925781 C 366.875 118.40625 365.542969 118.921875 364.222656 119.46875 C 362.902344 120.015625 361.59375 120.59375 360.300781 121.207031 C 359.007812 121.816406 357.730469 122.460938 356.46875 123.136719 C 355.210938 123.808594 353.964844 124.515625 352.738281 125.25 C 351.511719 125.984375 350.304688 126.75 349.117188 127.546875 C 347.925781 128.339844 346.757812 129.164062 345.609375 130.015625 C 344.460938 130.867188 343.335938 131.746094 342.230469 132.65625 C 341.125 133.5625 340.042969 134.496094 338.980469 135.457031 C 337.921875 136.417969 336.886719 137.402344 335.875 138.414062 C 334.867188 139.425781 333.878906 140.460938 332.921875 141.523438 C 331.960938 142.582031 331.027344 143.664062 330.121094 144.769531 C 329.210938 145.875 328.332031 147.003906 327.480469 148.152344 C 326.628906 149.300781 325.808594 150.46875 325.011719 151.660156 C 324.21875 152.847656 323.453125 154.054688 322.71875 155.28125 C 321.984375 156.511719 321.28125 157.753906 320.605469 159.015625 C 319.933594 160.277344 319.289062 161.554688 318.679688 162.847656 C 318.070312 164.140625 317.488281 165.445312 316.941406 166.769531 C 316.394531 168.089844 315.882812 169.425781 315.402344 170.769531 C 314.917969 172.117188 314.472656 173.476562 314.058594 174.84375 C 313.640625 176.210938 313.261719 177.589844 312.914062 178.976562 C 312.566406 180.363281 312.253906 181.761719 311.976562 183.164062 C 311.699219 184.566406 311.453125 185.972656 311.246094 187.386719 C 311.035156 188.804688 310.863281 190.222656 310.722656 191.644531 C 310.582031 193.070312 310.476562 194.496094 310.410156 195.921875 C 310.339844 197.351562 310.304688 198.78125 310.304688 200.210938 Z M 310.304688 200.210938 " fill-opacity="1" fill-rule="nonzero"/><path fill="#292929" d="M 199.785156 112.816406 L 199.785156 297.609375 C 198.355469 297.609375 196.925781 297.574219 195.5 297.503906 C 194.070312 297.433594 192.644531 297.328125 191.222656 297.1875 C 189.800781 297.046875 188.382812 296.875 186.96875 296.664062 C 185.554688 296.453125 184.148438 296.210938 182.746094 295.929688 C 181.34375 295.652344 179.949219 295.339844 178.5625 294.992188 C 177.175781 294.644531 175.796875 294.261719 174.429688 293.847656 C 173.0625 293.433594 171.707031 292.984375 170.359375 292.503906 C 169.015625 292.023438 167.679688 291.507812 166.359375 290.960938 C 165.039062 290.414062 163.734375 289.835938 162.441406 289.222656 C 161.148438 288.613281 159.871094 287.96875 158.613281 287.296875 C 157.351562 286.621094 156.109375 285.917969 154.882812 285.183594 C 153.65625 284.449219 152.449219 283.683594 151.261719 282.890625 C 150.070312 282.09375 148.902344 281.273438 147.753906 280.421875 C 146.605469 279.570312 145.480469 278.691406 144.375 277.785156 C 143.269531 276.875 142.1875 275.945312 141.128906 274.984375 C 140.070312 274.023438 139.035156 273.039062 138.023438 272.027344 C 137.015625 271.015625 136.027344 269.980469 135.070312 268.921875 C 134.109375 267.863281 133.175781 266.78125 132.269531 265.675781 C 131.363281 264.570312 130.484375 263.445312 129.632812 262.296875 C 128.78125 261.148438 127.957031 259.980469 127.164062 258.792969 C 126.367188 257.601562 125.605469 256.394531 124.871094 255.171875 C 124.132812 253.945312 123.429688 252.699219 122.757812 251.441406 C 122.082031 250.179688 121.441406 248.902344 120.828125 247.609375 C 120.21875 246.320312 119.636719 245.011719 119.089844 243.691406 C 118.542969 242.371094 118.03125 241.039062 117.546875 239.691406 C 117.066406 238.347656 116.617188 236.988281 116.203125 235.621094 C 115.789062 234.253906 115.40625 232.875 115.058594 231.488281 C 114.714844 230.101562 114.398438 228.710938 114.121094 227.308594 C 113.84375 225.90625 113.597656 224.496094 113.386719 223.082031 C 113.179688 221.667969 113.003906 220.25 112.863281 218.828125 C 112.722656 217.40625 112.617188 215.980469 112.546875 214.554688 C 112.476562 213.125 112.441406 211.695312 112.441406 210.265625 L 112.441406 200.210938 C 112.441406 198.78125 112.476562 197.351562 112.546875 195.921875 C 112.613281 194.496094 112.71875 193.070312 112.859375 191.644531 C 112.996094 190.222656 113.171875 188.804688 113.382812 187.390625 C 113.589844 185.972656 113.832031 184.566406 114.113281 183.164062 C 114.390625 181.761719 114.703125 180.367188 115.050781 178.976562 C 115.394531 177.589844 115.777344 176.214844 116.191406 174.84375 C 116.605469 173.476562 117.054688 172.117188 117.535156 170.773438 C 118.015625 169.425781 118.53125 168.089844 119.074219 166.769531 C 119.621094 165.449219 120.203125 164.140625 120.8125 162.847656 C 121.421875 161.554688 122.066406 160.277344 122.738281 159.015625 C 123.414062 157.753906 124.117188 156.511719 124.851562 155.285156 C 125.585938 154.058594 126.351562 152.847656 127.144531 151.660156 C 127.9375 150.472656 128.761719 149.300781 129.613281 148.152344 C 130.464844 147.003906 131.34375 145.875 132.25 144.769531 C 133.15625 143.664062 134.089844 142.582031 135.050781 141.523438 C 136.007812 140.460938 136.996094 139.425781 138.003906 138.414062 C 139.015625 137.402344 140.050781 136.417969 141.109375 135.457031 C 142.171875 134.496094 143.253906 133.5625 144.359375 132.65625 C 145.460938 131.746094 146.589844 130.867188 147.738281 130.015625 C 148.886719 129.164062 150.054688 128.339844 151.242188 127.546875 C 152.433594 126.75 153.640625 125.984375 154.867188 125.25 C 156.09375 124.515625 157.335938 123.808594 158.597656 123.136719 C 159.859375 122.460938 161.136719 121.820312 162.425781 121.207031 C 163.71875 120.59375 165.027344 120.015625 166.347656 119.46875 C 167.667969 118.921875 169.003906 118.40625 170.347656 117.925781 C 171.695312 117.441406 173.054688 116.992188 174.421875 116.578125 C 175.789062 116.164062 177.167969 115.78125 178.554688 115.433594 C 179.941406 115.085938 181.335938 114.773438 182.738281 114.496094 C 184.140625 114.214844 185.550781 113.96875 186.964844 113.761719 C 188.378906 113.550781 189.796875 113.375 191.21875 113.234375 C 192.644531 113.09375 194.070312 112.988281 195.496094 112.921875 C 196.925781 112.851562 198.355469 112.816406 199.785156 112.816406 Z M 199.785156 112.816406 " fill-opacity="1" fill-rule="nonzero"/><g fill="#292929" fill-opacity="1"><g transform="translate(63.345902, 437.833129)"><g><path d="M 4.304688 0 L 17.335938 0 C 32.949219 0 42.355469 -8.914062 42.355469 -24.589844 C 42.355469 -40.941406 32.644531 -49.179688 17.335938 -49.179688 L 4.304688 -49.179688 C 4.671875 -44.015625 4.796875 -41.558594 4.796875 -37.070312 L 4.796875 -12.109375 C 4.796875 -7.621094 4.671875 -5.164062 4.304688 0 Z M 17.152344 -0.984375 L 10.820312 -0.984375 L 10.820312 -48.195312 L 17.152344 -48.195312 C 28.03125 -48.195312 35.71875 -40.574219 35.71875 -24.589844 C 35.71875 -9.222656 28.03125 -0.984375 17.152344 -0.984375 Z M 17.152344 -0.984375 "/></g></g></g><g fill="#292929" fill-opacity="1"><g transform="translate(106.191308, 437.833129)"><g><path d="M 4.304688 -49.179688 C 4.796875 -44.015625 4.855469 -41.558594 4.855469 -37.070312 L 4.855469 -12.109375 C 4.855469 -7.621094 4.796875 -5.164062 4.304688 0 L 33.195312 0 L 34.980469 -3.320312 C 28.09375 -1.289062 23.914062 -0.984375 17.828125 -0.984375 L 10.941406 -0.984375 L 10.941406 -25.574219 L 14.878906 -25.574219 C 18.136719 -25.574219 21.457031 -25.574219 27.171875 -24.960938 L 27.171875 -27.171875 C 21.457031 -26.558594 18.136719 -26.558594 14.878906 -26.558594 L 10.941406 -26.558594 L 10.941406 -48.195312 L 16.535156 -48.195312 C 19.304688 -48.195312 25.328125 -47.828125 30.554688 -45.738281 L 33.320312 -49.179688 Z M 4.304688 -49.179688 "/></g></g></g><g fill="#292929" fill-opacity="1"><g transform="translate(139.815924, 437.833129)"><g><path d="M 49.609375 -20.472656 C 46.90625 -8.421875 40.265625 -0.613281 29.507812 -0.613281 C 16.351562 -0.613281 10.328125 -12.171875 10.328125 -25.574219 C 10.328125 -38.730469 17.152344 -49.425781 27.910156 -49.425781 C 35.71875 -49.425781 39.960938 -43.15625 41.863281 -35.347656 L 48.011719 -37.007812 C 43.832031 -45.429688 37.4375 -50.410156 27.910156 -50.410156 C 14.386719 -50.410156 3.6875 -40.144531 3.6875 -25.207031 C 3.6875 -10.265625 12.664062 1.230469 27.972656 1.230469 C 40.636719 1.230469 47.644531 -7.378906 50.472656 -20.472656 Z M 49.609375 -20.472656 "/></g></g></g><g fill="#292929" fill-opacity="1"><g transform="translate(189.546194, 437.833129)"><g><path d="M 31.167969 1.230469 C 46.90625 1.230469 58.710938 -9.46875 58.710938 -24.589844 C 58.710938 -39.652344 46.90625 -50.410156 31.167969 -50.410156 C 15.429688 -50.410156 3.6875 -39.652344 3.6875 -24.589844 C 3.6875 -9.46875 15.429688 1.230469 31.167969 1.230469 Z M 31.167969 0.246094 C 18.136719 0.246094 10.328125 -11.617188 10.328125 -24.589844 C 10.328125 -37.5 18.136719 -49.425781 31.167969 -49.425781 C 44.203125 -49.425781 52.070312 -37.5 52.070312 -24.589844 C 52.070312 -11.617188 44.203125 0.246094 31.167969 0.246094 Z M 31.167969 0.246094 "/></g></g></g><g fill="#292929" fill-opacity="1"><g transform="translate(248.743136, 437.833129)"><g/></g></g><g fill="#292929" fill-opacity="1"><g transform="translate(263.127042, 437.833129)"><g><path d="M 3.074219 -49.179688 C 4.304688 -46.78125 4.855469 -45.429688 5.59375 -42.601562 L 17.644531 0 L 24.898438 0 C 24.46875 -1.351562 24.46875 -2.027344 24.773438 -3.320312 L 36.023438 -42.972656 C 36.699219 -45.246094 36.886719 -46.476562 38.238281 -49.179688 L 36.394531 -49.179688 C 36.210938 -46.539062 35.65625 -45.246094 35.042969 -42.910156 L 23.484375 -2.089844 L 12.050781 -42.601562 C 11.3125 -45.246094 10.882812 -46.414062 10.757812 -49.179688 Z M 3.074219 -49.179688 "/></g></g></g><g fill="#292929" fill-opacity="1"><g transform="translate(301.239112, 437.833129)"><g><path d="M 4.304688 -49.179688 C 4.671875 -44.015625 4.796875 -41.558594 4.796875 -37.070312 L 4.796875 -12.109375 C 4.796875 -7.621094 4.671875 -5.164062 4.304688 0 L 11.3125 0 C 10.941406 -5.164062 10.820312 -7.621094 10.820312 -12.109375 L 10.820312 -37.070312 C 10.820312 -41.558594 10.941406 -44.015625 11.3125 -49.179688 Z M 4.304688 -49.179688 "/></g></g></g><g fill="#292929" fill-opacity="1"><g transform="translate(313.655916, 437.833129)"><g><path d="M 2.460938 -14.691406 C 6.640625 -2.828125 13.769531 1.230469 22.4375 1.230469 C 29.9375 1.230469 36.210938 -2.765625 36.210938 -11.003906 C 36.210938 -18.566406 30.738281 -22.378906 20.285156 -30.0625 C 12.664062 -35.65625 9.097656 -37.871094 9.097656 -42.664062 C 9.097656 -46.722656 12.234375 -49.425781 17.519531 -49.425781 C 25.390625 -49.425781 28.585938 -43.21875 29.753906 -37.191406 L 34.671875 -39.039062 C 30.429688 -46.660156 25.082031 -50.410156 17.828125 -50.410156 C 10.695312 -50.410156 5.53125 -46.90625 5.53125 -40.511719 C 5.53125 -34.425781 9.222656 -31.597656 18.011719 -25.082031 C 27.234375 -18.074219 32.707031 -14.445312 32.707031 -9.035156 C 32.707031 -2.828125 28.464844 0.246094 22.808594 0.246094 C 14.691406 0.246094 8.605469 -6.886719 7.378906 -17.089844 Z M 2.460938 -14.691406 "/></g></g></g><g fill="#292929" fill-opacity="1"><g transform="translate(349.12471, 437.833129)"><g><path d="M 3.6875 -49.179688 C 4.058594 -44.015625 4.179688 -41.558594 4.179688 -37.070312 L 4.179688 -20.902344 C 4.179688 -3.382812 11.433594 1.230469 22.867188 1.230469 C 33.8125 1.230469 39.222656 -4.796875 39.222656 -20.902344 L 39.222656 -37.070312 C 39.222656 -41.558594 39.28125 -44.015625 39.714844 -49.179688 L 37.746094 -49.179688 C 38.175781 -44.015625 38.238281 -41.558594 38.238281 -37.070312 L 38.238281 -20.902344 C 38.238281 -5.65625 33.320312 -0.308594 23.914062 -0.308594 C 14.199219 -0.308594 10.203125 -6.269531 10.203125 -20.902344 L 10.203125 -37.070312 C 10.203125 -41.558594 10.328125 -44.015625 10.695312 -49.179688 Z M 3.6875 -49.179688 "/></g></g></g><g fill="#292929" fill-opacity="1"><g transform="translate(389.326823, 437.833129)"><g><path d="M 35.65625 -6.578125 L 23.667969 -49.179688 L 16.414062 -49.179688 C 16.84375 -47.828125 16.84375 -47.152344 16.535156 -45.859375 L 5.285156 -6.210938 C 4.609375 -3.933594 4.425781 -2.703125 3.074219 0 L 4.855469 0 C 5.101562 -2.644531 5.59375 -3.933594 6.269531 -6.269531 L 9.589844 -17.890625 L 26.066406 -17.890625 L 29.261719 -6.578125 C 30 -3.933594 30.429688 -2.765625 30.554688 0 L 38.238281 0 C 37.007812 -2.398438 36.457031 -3.75 35.65625 -6.578125 Z M 9.835938 -18.875 L 17.828125 -47.089844 L 25.820312 -18.875 Z M 9.835938 -18.875 "/></g></g></g><g fill="#292929" fill-opacity="1"><g transform="translate(427.438877, 437.833129)"><g><path d="M 4.425781 -49.179688 C 4.796875 -44.015625 4.917969 -41.558594 4.917969 -37.070312 L 4.917969 -12.109375 C 4.917969 -7.621094 4.796875 -5.164062 4.304688 0 L 31.476562 0 L 33.257812 -3.320312 C 26.375 -1.289062 22.191406 -0.984375 16.105469 -0.984375 L 10.941406 -0.984375 L 10.941406 -37.070312 C 10.941406 -41.558594 11.066406 -44.015625 11.433594 -49.179688 Z M 4.425781 -49.179688 "/></g></g></g><g fill="#292929" fill-opacity="1"><g transform="translate(77.919148, 364.540529)"><g><path d="M 4.304688 -49.183594 C 4.796875 -44.019531 4.855469 -41.5625 4.855469 -37.074219 L 4.855469 -12.113281 C 4.855469 -7.625 4.796875 -5.164062 4.304688 0 L 33.199219 0 L 34.980469 -3.320312 C 28.097656 -1.292969 23.914062 -0.984375 17.828125 -0.984375 L 10.945312 -0.984375 L 10.945312 -25.574219 L 14.878906 -25.574219 C 18.136719 -25.574219 21.457031 -25.574219 27.175781 -24.960938 L 27.175781 -27.175781 C 21.457031 -26.558594 18.136719 -26.558594 14.878906 -26.558594 L 10.945312 -26.558594 L 10.945312 -48.199219 L 16.539062 -48.199219 C 19.304688 -48.199219 25.328125 -47.832031 30.554688 -45.742188 L 33.324219 -49.183594 Z M 4.304688 -49.183594 "/></g></g></g><g fill="#292929" fill-opacity="1"><g transform="translate(128.88452, 364.540529)"><g><path d="M 2.460938 -14.695312 C 6.640625 -2.828125 13.773438 1.230469 22.441406 1.230469 C 29.941406 1.230469 36.210938 -2.765625 36.210938 -11.003906 C 36.210938 -18.566406 30.738281 -22.378906 20.289062 -30.0625 C 12.664062 -35.660156 9.097656 -37.871094 9.097656 -42.667969 C 9.097656 -46.726562 12.234375 -49.429688 17.523438 -49.429688 C 25.390625 -49.429688 28.589844 -43.222656 29.757812 -37.195312 L 34.675781 -39.039062 C 30.433594 -46.664062 25.085938 -50.414062 17.828125 -50.414062 C 10.699219 -50.414062 5.535156 -46.910156 5.535156 -40.515625 C 5.535156 -34.429688 9.222656 -31.601562 18.015625 -25.085938 C 27.234375 -18.074219 32.707031 -14.449219 32.707031 -9.039062 C 32.707031 -2.828125 28.464844 0.246094 22.808594 0.246094 C 14.695312 0.246094 8.605469 -6.886719 7.378906 -17.089844 Z M 2.460938 -14.695312 "/></g></g></g><g fill="#292929" fill-opacity="1"><g transform="translate(181.694188, 364.540529)"><g><path d="M 39.59375 -49.183594 L 1.230469 -49.183594 L 3.933594 -45.742188 C 9.222656 -47.832031 13.957031 -48.199219 16.660156 -48.199219 L 17.398438 -48.199219 L 17.398438 -12.113281 C 17.398438 -7.625 17.277344 -5.164062 16.90625 0 L 23.914062 0 C 23.546875 -5.164062 23.425781 -7.625 23.425781 -12.113281 L 23.425781 -48.199219 L 24.160156 -48.199219 C 26.867188 -48.199219 31.601562 -47.832031 36.886719 -45.742188 Z M 39.59375 -49.183594 "/></g></g></g><g fill="#292929" fill-opacity="1"><g transform="translate(236.655538, 364.540529)"><g><path d="M 3.6875 -49.183594 C 4.058594 -44.019531 4.179688 -41.5625 4.179688 -37.074219 L 4.179688 -20.902344 C 4.179688 -3.382812 11.433594 1.230469 22.871094 1.230469 C 33.8125 1.230469 39.222656 -4.796875 39.222656 -20.902344 L 39.222656 -37.074219 C 39.222656 -41.5625 39.285156 -44.019531 39.714844 -49.183594 L 37.75 -49.183594 C 38.179688 -44.019531 38.242188 -41.5625 38.242188 -37.074219 L 38.242188 -20.902344 C 38.242188 -5.65625 33.324219 -0.308594 23.914062 -0.308594 C 14.203125 -0.308594 10.207031 -6.269531 10.207031 -20.902344 L 10.207031 -37.074219 C 10.207031 -41.5625 10.328125 -44.019531 10.699219 -49.183594 Z M 3.6875 -49.183594 "/></g></g></g><g fill="#292929" fill-opacity="1"><g transform="translate(294.198907, 364.540529)"><g><path d="M 4.304688 0 L 17.335938 0 C 32.953125 0 42.359375 -8.914062 42.359375 -24.59375 C 42.359375 -40.945312 32.644531 -49.183594 17.335938 -49.183594 L 4.304688 -49.183594 C 4.671875 -44.019531 4.796875 -41.5625 4.796875 -37.074219 L 4.796875 -12.113281 C 4.796875 -7.625 4.671875 -5.164062 4.304688 0 Z M 17.152344 -0.984375 L 10.820312 -0.984375 L 10.820312 -48.199219 L 17.152344 -48.199219 C 28.035156 -48.199219 35.71875 -40.578125 35.71875 -24.59375 C 35.71875 -9.222656 28.035156 -0.984375 17.152344 -0.984375 Z M 17.152344 -0.984375 "/></g></g></g><g fill="#292929" fill-opacity="1"><g transform="translate(354.38577, 364.540529)"><g><path d="M 4.304688 -49.183594 C 4.671875 -44.019531 4.796875 -41.5625 4.796875 -37.074219 L 4.796875 -12.113281 C 4.796875 -7.625 4.671875 -5.164062 4.304688 0 L 11.3125 0 C 10.945312 -5.164062 10.820312 -7.625 10.820312 -12.113281 L 10.820312 -37.074219 C 10.820312 -41.5625 10.945312 -44.019531 11.3125 -49.183594 Z M 4.304688 -49.183594 "/></g></g></g><g fill="#292929" fill-opacity="1"><g transform="translate(384.141706, 364.540529)"><g><path d="M 31.171875 1.230469 C 46.910156 1.230469 58.714844 -9.46875 58.714844 -24.59375 C 58.714844 -39.65625 46.910156 -50.414062 31.171875 -50.414062 C 15.429688 -50.414062 3.6875 -39.65625 3.6875 -24.59375 C 3.6875 -9.46875 15.429688 1.230469 31.171875 1.230469 Z M 31.171875 0.246094 C 18.136719 0.246094 10.328125 -11.621094 10.328125 -24.59375 C 10.328125 -37.503906 18.136719 -49.429688 31.171875 -49.429688 C 44.203125 -49.429688 52.074219 -37.503906 52.074219 -24.59375 C 52.074219 -11.621094 44.203125 0.246094 31.171875 0.246094 Z M 31.171875 0.246094 "/></g></g></g></svg>