<svg xmlns="http://www.w3.org/2000/svg" xmlns:xlink="http://www.w3.org/1999/xlink" width="500" zoomAndPan="magnify" viewBox="0 0 375 374.999991" height="500" preserveAspectRatio="xMidYMid meet" version="1.2"><defs><clipPath id="b5a3adbb94"><path d="M 57.957031 56.226562 L 274.878906 56.226562 L 274.878906 72.4375 L 57.957031 72.4375 Z M 57.957031 56.226562 "/></clipPath><clipPath id="28550e42d8"><path d="M 57.957031 303.882812 L 274.878906 303.882812 L 274.878906 320.90625 L 57.957031 320.90625 Z M 57.957031 303.882812 "/></clipPath><clipPath id="abdff8d962"><path d="M 57.964844 56.210938 L 71.105469 56.210938 L 71.105469 320.894531 L 57.964844 320.894531 Z M 57.964844 56.210938 "/></clipPath><clipPath id="30d428db26"><path d="M 65.746094 180.054688 L 162.449219 180.054688 L 162.449219 197.078125 L 65.746094 197.078125 Z M 65.746094 180.054688 "/></clipPath><clipPath id="1e7107091f"><path d="M 156 95 L 312 95 L 312 321 L 156 321 Z M 156 95 "/></clipPath><clipPath id="ad5b83bc4d"><path d="M 166.203125 95.351562 L 311.105469 314.488281 L 301.398438 320.90625 L 156.496094 101.769531 Z M 166.203125 95.351562 "/></clipPath><clipPath id="0a635476cd"><path d="M 147.515625 95.496094 L 165.507812 95.496094 L 165.507812 267.734375 L 147.515625 267.734375 Z M 147.515625 95.496094 "/></clipPath><clipPath id="f4220a0a52"><path d="M 301.632812 54.082031 L 317.046875 54.082031 L 317.046875 320.683594 L 301.632812 320.683594 Z M 301.632812 54.082031 "/></clipPath></defs><g id="8455be865f"><g clip-rule="nonzero" clip-path="url(#b5a3adbb94)"><path style=" stroke:none;fill-rule:nonzero;fill:#ffffff;fill-opacity:1;" d="M 57.957031 56.226562 L 274.851562 56.226562 L 274.851562 72.4375 L 57.957031 72.4375 Z M 57.957031 56.226562 "/></g><g clip-rule="nonzero" clip-path="url(#28550e42d8)"><path style=" stroke:none;fill-rule:nonzero;fill:#ffffff;fill-opacity:1;" d="M 57.957031 303.882812 L 274.910156 303.882812 L 274.910156 320.90625 L 57.957031 320.90625 Z M 57.957031 303.882812 "/></g><g clip-rule="nonzero" clip-path="url(#abdff8d962)"><path style=" stroke:none;fill-rule:nonzero;fill:#ffffff;fill-opacity:1;" d="M 57.964844 320.894531 L 57.964844 56.214844 L 71.105469 56.214844 L 71.105469 320.894531 Z M 57.964844 320.894531 "/></g><g clip-rule="nonzero" clip-path="url(#30d428db26)"><path style=" stroke:none;fill-rule:nonzero;fill:#ffffff;fill-opacity:1;" d="M 65.746094 180.054688 L 162.453125 180.054688 L 162.453125 197.078125 L 65.746094 197.078125 Z M 65.746094 180.054688 "/></g><g clip-rule="nonzero" clip-path="url(#1e7107091f)"><g clip-rule="nonzero" clip-path="url(#ad5b83bc4d)"><path style=" stroke:none;fill-rule:nonzero;fill:#ffffff;fill-opacity:1;" d="M 166.203125 95.351562 L 311.117188 314.503906 L 301.410156 320.921875 L 156.496094 101.769531 Z M 166.203125 95.351562 "/></g></g><g clip-rule="nonzero" clip-path="url(#0a635476cd)"><path style=" stroke:none;fill-rule:nonzero;fill:#ffffff;fill-opacity:1;" d="M 147.515625 267.734375 L 147.515625 95.523438 L 165.507812 95.523438 L 165.507812 267.734375 Z M 147.515625 267.734375 "/></g><g clip-rule="nonzero" clip-path="url(#f4220a0a52)"><path style=" stroke:none;fill-rule:nonzero;fill:#ffffff;fill-opacity:1;" d="M 301.632812 320.683594 L 301.632812 54.054688 L 317.046875 54.054688 L 317.046875 320.683594 Z M 301.632812 320.683594 "/></g></g></svg>