<svg xmlns="http://www.w3.org/2000/svg" xmlns:xlink="http://www.w3.org/1999/xlink" width="500" zoomAndPan="magnify" viewBox="0 0 375 374.999991" height="500" preserveAspectRatio="xMidYMid meet" version="1.2"><defs><clipPath id="99c18420a0"><path d="M 132.878906 93.125 L 224.34375 93.125 L 224.34375 99.960938 L 132.878906 99.960938 Z M 132.878906 93.125 "/></clipPath><clipPath id="495cdc5da7"><path d="M 132.878906 197.546875 L 224.34375 197.546875 L 224.34375 204.726562 L 132.878906 204.726562 Z M 132.878906 197.546875 "/></clipPath><clipPath id="edb9ec33dc"><path d="M 132.882812 93.117188 L 138.425781 93.117188 L 138.425781 204.71875 L 132.882812 204.71875 Z M 132.882812 93.117188 "/></clipPath><clipPath id="7b86374e26"><path d="M 136.164062 145.335938 L 176.9375 145.335938 L 176.9375 152.515625 L 136.164062 152.515625 Z M 136.164062 145.335938 "/></clipPath><clipPath id="e98fa7f60b"><path d="M 174 109 L 240 109 L 240 205 L 174 205 Z M 174 109 "/></clipPath><clipPath id="c82f36ef33"><path d="M 178.519531 109.621094 L 239.617188 202.019531 L 235.523438 204.726562 L 174.425781 112.328125 Z M 178.519531 109.621094 "/></clipPath><clipPath id="ed9c02f416"><path d="M 170.640625 109.683594 L 178.226562 109.683594 L 178.226562 182.304688 L 170.640625 182.304688 Z M 170.640625 109.683594 "/></clipPath><clipPath id="b78de6e370"><path d="M 235.625 92.21875 L 242.121094 92.21875 L 242.121094 204.628906 L 235.625 204.628906 Z M 235.625 92.21875 "/></clipPath></defs><g id="47f8cf7af9"><g clip-rule="nonzero" clip-path="url(#99c18420a0)"><path style=" stroke:none;fill-rule:nonzero;fill:#ffffff;fill-opacity:1;" d="M 132.878906 93.125 L 224.332031 93.125 L 224.332031 99.960938 L 132.878906 99.960938 Z M 132.878906 93.125 "/></g><g clip-rule="nonzero" clip-path="url(#495cdc5da7)"><path style=" stroke:none;fill-rule:nonzero;fill:#ffffff;fill-opacity:1;" d="M 132.878906 197.546875 L 224.355469 197.546875 L 224.355469 204.726562 L 132.878906 204.726562 Z M 132.878906 197.546875 "/></g><g clip-rule="nonzero" clip-path="url(#edb9ec33dc)"><path style=" stroke:none;fill-rule:nonzero;fill:#ffffff;fill-opacity:1;" d="M 132.882812 204.71875 L 132.882812 93.121094 L 138.425781 93.121094 L 138.425781 204.71875 Z M 132.882812 204.71875 "/></g><g clip-rule="nonzero" clip-path="url(#7b86374e26)"><path style=" stroke:none;fill-rule:nonzero;fill:#ffffff;fill-opacity:1;" d="M 136.164062 145.335938 L 176.9375 145.335938 L 176.9375 152.515625 L 136.164062 152.515625 Z M 136.164062 145.335938 "/></g><g clip-rule="nonzero" clip-path="url(#e98fa7f60b)"><g clip-rule="nonzero" clip-path="url(#c82f36ef33)"><path style=" stroke:none;fill-rule:nonzero;fill:#ffffff;fill-opacity:1;" d="M 178.519531 109.621094 L 239.621094 202.023438 L 235.527344 204.730469 L 174.425781 112.328125 Z M 178.519531 109.621094 "/></g></g><g clip-rule="nonzero" clip-path="url(#ed9c02f416)"><path style=" stroke:none;fill-rule:nonzero;fill:#ffffff;fill-opacity:1;" d="M 170.640625 182.304688 L 170.640625 109.695312 L 178.226562 109.695312 L 178.226562 182.304688 Z M 170.640625 182.304688 "/></g><g clip-rule="nonzero" clip-path="url(#b78de6e370)"><path style=" stroke:none;fill-rule:nonzero;fill:#ffffff;fill-opacity:1;" d="M 235.625 204.628906 L 235.625 92.207031 L 242.121094 92.207031 L 242.121094 204.628906 Z M 235.625 204.628906 "/></g><g style="fill:#ffffff;fill-opacity:1;"><g transform="translate(108.852061, 274.025051)"><path style="stroke:none" d="M 0.484375 -5.734375 L 2.84375 -5.734375 C 3.875 -5.734375 4.675781 -5.488281 5.25 -5 C 5.820312 -4.507812 6.109375 -3.820312 6.109375 -2.9375 C 6.109375 -2.363281 5.972656 -1.851562 5.703125 -1.40625 C 5.441406 -0.96875 5.070312 -0.625 4.59375 -0.375 C 4.125 -0.125 3.578125 0 2.953125 0 L 0.484375 0 L 0.453125 -0.375 L 1.0625 -0.515625 C 1.070312 -0.566406 1.082031 -0.726562 1.09375 -1 C 1.101562 -1.28125 1.109375 -1.59375 1.109375 -1.9375 L 1.109375 -3.78125 C 1.109375 -4.164062 1.101562 -4.492188 1.09375 -4.765625 C 1.082031 -5.035156 1.070312 -5.1875 1.0625 -5.21875 L 0.453125 -5.359375 Z M 1.953125 -5.203125 C 1.953125 -5.140625 1.945312 -5.054688 1.9375 -4.953125 C 1.9375 -4.859375 1.9375 -4.71875 1.9375 -4.53125 C 1.9375 -4.351562 1.9375 -4.101562 1.9375 -3.78125 L 1.9375 -1.9375 C 1.9375 -1.75 1.9375 -1.566406 1.9375 -1.390625 C 1.9375 -1.222656 1.941406 -1.066406 1.953125 -0.921875 C 1.960938 -0.785156 1.972656 -0.675781 1.984375 -0.59375 C 2.191406 -0.5625 2.378906 -0.535156 2.546875 -0.515625 C 2.710938 -0.503906 2.875 -0.5 3.03125 -0.5 C 3.71875 -0.5 4.238281 -0.679688 4.59375 -1.046875 C 4.957031 -1.421875 5.140625 -1.953125 5.140625 -2.640625 C 5.140625 -3.066406 5.085938 -3.441406 4.984375 -3.765625 C 4.878906 -4.097656 4.722656 -4.375 4.515625 -4.59375 C 4.304688 -4.820312 4.054688 -4.992188 3.765625 -5.109375 C 3.472656 -5.222656 3.128906 -5.28125 2.734375 -5.28125 C 2.617188 -5.28125 2.492188 -5.273438 2.359375 -5.265625 C 2.234375 -5.253906 2.097656 -5.234375 1.953125 -5.203125 Z M 1.953125 -5.203125 "/></g></g><g style="fill:#ffffff;fill-opacity:1;"><g transform="translate(118.509786, 274.025051)"><path style="stroke:none" d="M 0.484375 0 L 0.453125 -0.375 L 1.0625 -0.515625 C 1.070312 -0.546875 1.078125 -0.617188 1.078125 -0.734375 C 1.078125 -0.847656 1.078125 -1.003906 1.078125 -1.203125 C 1.085938 -1.410156 1.09375 -1.65625 1.09375 -1.9375 L 1.09375 -3.78125 C 1.09375 -4.070312 1.085938 -4.316406 1.078125 -4.515625 C 1.078125 -4.722656 1.078125 -4.890625 1.078125 -5.015625 C 1.078125 -5.140625 1.070312 -5.207031 1.0625 -5.21875 L 0.453125 -5.359375 L 0.484375 -5.734375 L 2.5625 -5.734375 L 2.578125 -5.359375 L 1.984375 -5.21875 C 1.972656 -5.207031 1.960938 -5.144531 1.953125 -5.03125 C 1.941406 -4.925781 1.929688 -4.769531 1.921875 -4.5625 C 1.921875 -4.363281 1.921875 -4.101562 1.921875 -3.78125 L 1.921875 -1.9375 C 1.921875 -1.625 1.921875 -1.367188 1.921875 -1.171875 C 1.929688 -0.972656 1.941406 -0.816406 1.953125 -0.703125 C 1.960938 -0.597656 1.972656 -0.535156 1.984375 -0.515625 L 2.578125 -0.375 L 2.5625 0 Z M 0.484375 0 "/></g></g><g style="fill:#ffffff;fill-opacity:1;"><g transform="translate(124.536119, 274.025051)"><path style="stroke:none" d="M 2.203125 0.09375 C 1.910156 0.09375 1.613281 0.0546875 1.3125 -0.015625 C 1.019531 -0.0859375 0.773438 -0.179688 0.578125 -0.296875 L 0.53125 -1.546875 L 0.953125 -1.59375 L 1.21875 -0.71875 C 1.375 -0.613281 1.546875 -0.535156 1.734375 -0.484375 C 1.929688 -0.429688 2.132812 -0.40625 2.34375 -0.40625 C 2.664062 -0.40625 2.921875 -0.484375 3.109375 -0.640625 C 3.304688 -0.796875 3.40625 -1.003906 3.40625 -1.265625 C 3.40625 -1.492188 3.335938 -1.6875 3.203125 -1.84375 C 3.066406 -2 2.890625 -2.128906 2.671875 -2.234375 C 2.453125 -2.347656 2.21875 -2.457031 1.96875 -2.5625 C 1.726562 -2.675781 1.5 -2.800781 1.28125 -2.9375 C 1.070312 -3.082031 0.894531 -3.253906 0.75 -3.453125 C 0.613281 -3.660156 0.546875 -3.921875 0.546875 -4.234375 C 0.546875 -4.546875 0.632812 -4.820312 0.8125 -5.0625 C 0.988281 -5.3125 1.234375 -5.5 1.546875 -5.625 C 1.859375 -5.757812 2.21875 -5.828125 2.625 -5.828125 C 2.789062 -5.828125 2.953125 -5.816406 3.109375 -5.796875 C 3.273438 -5.785156 3.425781 -5.757812 3.5625 -5.71875 C 3.695312 -5.6875 3.820312 -5.648438 3.9375 -5.609375 L 4.015625 -4.390625 L 3.59375 -4.34375 L 3.328125 -5.171875 C 3.117188 -5.296875 2.847656 -5.359375 2.515625 -5.359375 C 2.179688 -5.359375 1.914062 -5.273438 1.71875 -5.109375 C 1.519531 -4.953125 1.421875 -4.742188 1.421875 -4.484375 C 1.421875 -4.242188 1.488281 -4.046875 1.625 -3.890625 C 1.769531 -3.734375 1.953125 -3.59375 2.171875 -3.46875 C 2.390625 -3.351562 2.617188 -3.242188 2.859375 -3.140625 C 3.109375 -3.035156 3.34375 -2.910156 3.5625 -2.765625 C 3.78125 -2.628906 3.957031 -2.460938 4.09375 -2.265625 C 4.238281 -2.066406 4.3125 -1.820312 4.3125 -1.53125 C 4.3125 -1.21875 4.21875 -0.9375 4.03125 -0.6875 C 3.851562 -0.445312 3.601562 -0.253906 3.28125 -0.109375 C 2.96875 0.0234375 2.609375 0.09375 2.203125 0.09375 Z M 2.203125 0.09375 "/></g></g><g style="fill:#ffffff;fill-opacity:1;"><g transform="translate(132.212197, 274.025051)"><path style="stroke:none" d="M 4.75 0.046875 C 4.5625 0.0234375 4.394531 0.0078125 4.25 0 C 4.101562 0 3.960938 0 3.828125 0 L 0.484375 0 L 0.453125 -0.375 L 1.0625 -0.515625 C 1.0625 -0.546875 1.0625 -0.617188 1.0625 -0.734375 C 1.070312 -0.847656 1.078125 -1.003906 1.078125 -1.203125 C 1.085938 -1.410156 1.09375 -1.65625 1.09375 -1.9375 L 1.09375 -3.78125 C 1.09375 -4.070312 1.085938 -4.316406 1.078125 -4.515625 C 1.078125 -4.722656 1.070312 -4.882812 1.0625 -5 C 1.0625 -5.125 1.0625 -5.195312 1.0625 -5.21875 L 0.453125 -5.359375 L 0.484375 -5.734375 L 3.609375 -5.734375 C 3.703125 -5.734375 3.800781 -5.734375 3.90625 -5.734375 C 4.007812 -5.734375 4.117188 -5.738281 4.234375 -5.75 C 4.347656 -5.757812 4.46875 -5.765625 4.59375 -5.765625 L 4.78125 -4.484375 L 4.34375 -4.421875 L 4.03125 -5.234375 C 3.976562 -5.242188 3.914062 -5.25 3.84375 -5.25 C 3.78125 -5.257812 3.710938 -5.265625 3.640625 -5.265625 L 2.546875 -5.265625 C 2.421875 -5.265625 2.3125 -5.257812 2.21875 -5.25 C 2.125 -5.25 2.03125 -5.242188 1.9375 -5.234375 C 1.9375 -5.210938 1.929688 -5.140625 1.921875 -5.015625 C 1.921875 -4.890625 1.921875 -4.75 1.921875 -4.59375 C 1.921875 -4.4375 1.921875 -4.28125 1.921875 -4.125 L 1.921875 -1.5 C 1.921875 -1.363281 1.921875 -1.226562 1.921875 -1.09375 C 1.921875 -0.96875 1.921875 -0.851562 1.921875 -0.75 C 1.929688 -0.644531 1.9375 -0.570312 1.9375 -0.53125 C 2.03125 -0.519531 2.125 -0.507812 2.21875 -0.5 C 2.320312 -0.5 2.4375 -0.5 2.5625 -0.5 L 3.5 -0.5 C 3.644531 -0.5 3.765625 -0.5 3.859375 -0.5 C 3.953125 -0.507812 4.023438 -0.515625 4.078125 -0.515625 C 4.128906 -0.523438 4.171875 -0.53125 4.203125 -0.53125 L 4.703125 -1.46875 L 5.140625 -1.375 Z M 3.65625 -2 L 3.546875 -2.671875 C 3.515625 -2.679688 3.457031 -2.6875 3.375 -2.6875 C 3.300781 -2.695312 3.207031 -2.703125 3.09375 -2.703125 L 2.359375 -2.703125 C 2.273438 -2.703125 2.179688 -2.695312 2.078125 -2.6875 C 1.972656 -2.6875 1.867188 -2.679688 1.765625 -2.671875 L 1.765625 -3.21875 C 1.867188 -3.207031 1.972656 -3.195312 2.078125 -3.1875 C 2.179688 -3.1875 2.273438 -3.1875 2.359375 -3.1875 L 3.09375 -3.1875 C 3.207031 -3.1875 3.300781 -3.1875 3.375 -3.1875 C 3.457031 -3.195312 3.515625 -3.207031 3.546875 -3.21875 L 3.65625 -3.890625 L 4.078125 -3.890625 L 4.078125 -2 Z M 3.65625 -2 "/></g></g><g style="fill:#ffffff;fill-opacity:1;"><g transform="translate(140.639935, 274.025051)"><path style="stroke:none" d="M 4.9375 -1.390625 L 4.9375 -3.578125 C 4.9375 -3.960938 4.929688 -4.269531 4.921875 -4.5 C 4.921875 -4.738281 4.914062 -4.914062 4.90625 -5.03125 C 4.894531 -5.144531 4.890625 -5.207031 4.890625 -5.21875 L 4.21875 -5.359375 L 4.25 -5.734375 L 6.109375 -5.734375 L 6.140625 -5.359375 L 5.53125 -5.21875 C 5.53125 -5.207031 5.523438 -5.144531 5.515625 -5.03125 C 5.503906 -4.914062 5.492188 -4.738281 5.484375 -4.5 C 5.484375 -4.269531 5.484375 -3.960938 5.484375 -3.578125 L 5.484375 -1.265625 C 5.484375 -1.054688 5.484375 -0.84375 5.484375 -0.625 C 5.484375 -0.40625 5.484375 -0.179688 5.484375 0.046875 L 5.046875 0.046875 L 1.453125 -4.796875 L 1.671875 -4.796875 L 1.671875 -2.171875 C 1.671875 -1.785156 1.671875 -1.472656 1.671875 -1.234375 C 1.679688 -1.003906 1.691406 -0.832031 1.703125 -0.71875 C 1.710938 -0.601562 1.722656 -0.535156 1.734375 -0.515625 L 2.390625 -0.375 L 2.359375 0 L 0.484375 0 L 0.453125 -0.375 L 1.0625 -0.515625 C 1.070312 -0.535156 1.078125 -0.597656 1.078125 -0.703125 C 1.085938 -0.816406 1.09375 -0.992188 1.09375 -1.234375 C 1.101562 -1.472656 1.109375 -1.785156 1.109375 -2.171875 L 1.109375 -3.84375 C 1.109375 -4.132812 1.101562 -4.375 1.09375 -4.5625 C 1.09375 -4.757812 1.085938 -4.910156 1.078125 -5.015625 C 1.078125 -5.117188 1.070312 -5.1875 1.0625 -5.21875 L 0.453125 -5.359375 L 0.484375 -5.734375 L 1.828125 -5.734375 L 5.109375 -1.390625 Z M 4.953125 -7.4375 L 5.265625 -7.265625 C 5.148438 -6.984375 4.988281 -6.753906 4.78125 -6.578125 C 4.582031 -6.410156 4.347656 -6.328125 4.078125 -6.328125 C 3.878906 -6.328125 3.679688 -6.367188 3.484375 -6.453125 C 3.285156 -6.546875 3.09375 -6.640625 2.90625 -6.734375 C 2.71875 -6.828125 2.539062 -6.875 2.375 -6.875 C 2.207031 -6.875 2.070312 -6.828125 1.96875 -6.734375 C 1.863281 -6.648438 1.765625 -6.535156 1.671875 -6.390625 L 1.359375 -6.5625 C 1.460938 -6.84375 1.617188 -7.066406 1.828125 -7.234375 C 2.035156 -7.410156 2.269531 -7.5 2.53125 -7.5 C 2.738281 -7.5 2.9375 -7.453125 3.125 -7.359375 C 3.320312 -7.273438 3.515625 -7.1875 3.703125 -7.09375 C 3.890625 -7.007812 4.070312 -6.96875 4.25 -6.96875 C 4.40625 -6.96875 4.535156 -7.007812 4.640625 -7.09375 C 4.742188 -7.175781 4.847656 -7.289062 4.953125 -7.4375 Z M 4.953125 -7.4375 "/></g></g><g style="fill:#ffffff;fill-opacity:1;"><g transform="translate(150.219566, 274.025051)"><path style="stroke:none" d="M 3.40625 0.09375 C 2.84375 0.09375 2.335938 -0.03125 1.890625 -0.28125 C 1.453125 -0.53125 1.109375 -0.875 0.859375 -1.3125 C 0.617188 -1.757812 0.5 -2.269531 0.5 -2.84375 C 0.5 -3.414062 0.625 -3.925781 0.875 -4.375 C 1.125 -4.820312 1.472656 -5.175781 1.921875 -5.4375 C 2.367188 -5.695312 2.867188 -5.828125 3.421875 -5.828125 C 3.972656 -5.828125 4.457031 -5.703125 4.875 -5.453125 C 5.289062 -5.203125 5.617188 -4.859375 5.859375 -4.421875 C 6.097656 -3.984375 6.21875 -3.476562 6.21875 -2.90625 C 6.21875 -2.46875 6.140625 -2.066406 5.984375 -1.703125 C 5.835938 -1.335938 5.632812 -1.019531 5.375 -0.75 C 5.113281 -0.488281 4.8125 -0.28125 4.46875 -0.125 C 4.132812 0.0195312 3.78125 0.09375 3.40625 0.09375 Z M 3.5 -0.4375 C 3.851562 -0.4375 4.160156 -0.523438 4.421875 -0.703125 C 4.679688 -0.890625 4.878906 -1.148438 5.015625 -1.484375 C 5.148438 -1.828125 5.21875 -2.222656 5.21875 -2.671875 C 5.21875 -3.203125 5.132812 -3.664062 4.96875 -4.0625 C 4.8125 -4.457031 4.59375 -4.765625 4.3125 -4.984375 C 4.03125 -5.210938 3.695312 -5.328125 3.3125 -5.328125 C 2.757812 -5.328125 2.320312 -5.117188 2 -4.703125 C 1.675781 -4.296875 1.515625 -3.738281 1.515625 -3.03125 C 1.515625 -2.519531 1.597656 -2.070312 1.765625 -1.6875 C 1.929688 -1.300781 2.164062 -0.992188 2.46875 -0.765625 C 2.769531 -0.546875 3.113281 -0.4375 3.5 -0.4375 Z M 3.5 -0.4375 "/></g></g><g style="fill:#ffffff;fill-opacity:1;"><g transform="translate(159.916339, 274.025051)"><path style="stroke:none" d=""/></g></g><g style="fill:#ffffff;fill-opacity:1;"><g transform="translate(164.790778, 274.025051)"><path style="stroke:none" d="M 0.484375 -5.734375 L 2.84375 -5.734375 C 3.875 -5.734375 4.675781 -5.488281 5.25 -5 C 5.820312 -4.507812 6.109375 -3.820312 6.109375 -2.9375 C 6.109375 -2.363281 5.972656 -1.851562 5.703125 -1.40625 C 5.441406 -0.96875 5.070312 -0.625 4.59375 -0.375 C 4.125 -0.125 3.578125 0 2.953125 0 L 0.484375 0 L 0.453125 -0.375 L 1.0625 -0.515625 C 1.070312 -0.566406 1.082031 -0.726562 1.09375 -1 C 1.101562 -1.28125 1.109375 -1.59375 1.109375 -1.9375 L 1.109375 -3.78125 C 1.109375 -4.164062 1.101562 -4.492188 1.09375 -4.765625 C 1.082031 -5.035156 1.070312 -5.1875 1.0625 -5.21875 L 0.453125 -5.359375 Z M 1.953125 -5.203125 C 1.953125 -5.140625 1.945312 -5.054688 1.9375 -4.953125 C 1.9375 -4.859375 1.9375 -4.71875 1.9375 -4.53125 C 1.9375 -4.351562 1.9375 -4.101562 1.9375 -3.78125 L 1.9375 -1.9375 C 1.9375 -1.75 1.9375 -1.566406 1.9375 -1.390625 C 1.9375 -1.222656 1.941406 -1.066406 1.953125 -0.921875 C 1.960938 -0.785156 1.972656 -0.675781 1.984375 -0.59375 C 2.191406 -0.5625 2.378906 -0.535156 2.546875 -0.515625 C 2.710938 -0.503906 2.875 -0.5 3.03125 -0.5 C 3.71875 -0.5 4.238281 -0.679688 4.59375 -1.046875 C 4.957031 -1.421875 5.140625 -1.953125 5.140625 -2.640625 C 5.140625 -3.066406 5.085938 -3.441406 4.984375 -3.765625 C 4.878906 -4.097656 4.722656 -4.375 4.515625 -4.59375 C 4.304688 -4.820312 4.054688 -4.992188 3.765625 -5.109375 C 3.472656 -5.222656 3.128906 -5.28125 2.734375 -5.28125 C 2.617188 -5.28125 2.492188 -5.273438 2.359375 -5.265625 C 2.234375 -5.253906 2.097656 -5.234375 1.953125 -5.203125 Z M 1.953125 -5.203125 "/></g></g><g style="fill:#ffffff;fill-opacity:1;"><g transform="translate(174.448503, 274.025051)"><path style="stroke:none" d="M 4.75 0.046875 C 4.5625 0.0234375 4.394531 0.0078125 4.25 0 C 4.101562 0 3.960938 0 3.828125 0 L 0.484375 0 L 0.453125 -0.375 L 1.0625 -0.515625 C 1.0625 -0.546875 1.0625 -0.617188 1.0625 -0.734375 C 1.070312 -0.847656 1.078125 -1.003906 1.078125 -1.203125 C 1.085938 -1.410156 1.09375 -1.65625 1.09375 -1.9375 L 1.09375 -3.78125 C 1.09375 -4.070312 1.085938 -4.316406 1.078125 -4.515625 C 1.078125 -4.722656 1.070312 -4.882812 1.0625 -5 C 1.0625 -5.125 1.0625 -5.195312 1.0625 -5.21875 L 0.453125 -5.359375 L 0.484375 -5.734375 L 3.609375 -5.734375 C 3.703125 -5.734375 3.800781 -5.734375 3.90625 -5.734375 C 4.007812 -5.734375 4.117188 -5.738281 4.234375 -5.75 C 4.347656 -5.757812 4.46875 -5.765625 4.59375 -5.765625 L 4.78125 -4.484375 L 4.34375 -4.421875 L 4.03125 -5.234375 C 3.976562 -5.242188 3.914062 -5.25 3.84375 -5.25 C 3.78125 -5.257812 3.710938 -5.265625 3.640625 -5.265625 L 2.546875 -5.265625 C 2.421875 -5.265625 2.3125 -5.257812 2.21875 -5.25 C 2.125 -5.25 2.03125 -5.242188 1.9375 -5.234375 C 1.9375 -5.210938 1.929688 -5.140625 1.921875 -5.015625 C 1.921875 -4.890625 1.921875 -4.75 1.921875 -4.59375 C 1.921875 -4.4375 1.921875 -4.28125 1.921875 -4.125 L 1.921875 -1.5 C 1.921875 -1.363281 1.921875 -1.226562 1.921875 -1.09375 C 1.921875 -0.96875 1.921875 -0.851562 1.921875 -0.75 C 1.929688 -0.644531 1.9375 -0.570312 1.9375 -0.53125 C 2.03125 -0.519531 2.125 -0.507812 2.21875 -0.5 C 2.320312 -0.5 2.4375 -0.5 2.5625 -0.5 L 3.5 -0.5 C 3.644531 -0.5 3.765625 -0.5 3.859375 -0.5 C 3.953125 -0.507812 4.023438 -0.515625 4.078125 -0.515625 C 4.128906 -0.523438 4.171875 -0.53125 4.203125 -0.53125 L 4.703125 -1.46875 L 5.140625 -1.375 Z M 3.65625 -2 L 3.546875 -2.671875 C 3.515625 -2.679688 3.457031 -2.6875 3.375 -2.6875 C 3.300781 -2.695312 3.207031 -2.703125 3.09375 -2.703125 L 2.359375 -2.703125 C 2.273438 -2.703125 2.179688 -2.695312 2.078125 -2.6875 C 1.972656 -2.6875 1.867188 -2.679688 1.765625 -2.671875 L 1.765625 -3.21875 C 1.867188 -3.207031 1.972656 -3.195312 2.078125 -3.1875 C 2.179688 -3.1875 2.273438 -3.1875 2.359375 -3.1875 L 3.09375 -3.1875 C 3.207031 -3.1875 3.300781 -3.1875 3.375 -3.1875 C 3.457031 -3.195312 3.515625 -3.207031 3.546875 -3.21875 L 3.65625 -3.890625 L 4.078125 -3.890625 L 4.078125 -2 Z M 3.65625 -2 "/></g></g><g style="fill:#ffffff;fill-opacity:1;"><g transform="translate(182.876241, 274.025051)"><path style="stroke:none" d=""/></g></g><g style="fill:#ffffff;fill-opacity:1;"><g transform="translate(187.75068, 274.025051)"><path style="stroke:none" d="M 0.484375 0 L 0.453125 -0.375 L 1.0625 -0.515625 C 1.070312 -0.546875 1.078125 -0.617188 1.078125 -0.734375 C 1.078125 -0.847656 1.078125 -1.003906 1.078125 -1.203125 C 1.085938 -1.410156 1.09375 -1.65625 1.09375 -1.9375 L 1.09375 -3.78125 C 1.09375 -4.070312 1.085938 -4.316406 1.078125 -4.515625 C 1.078125 -4.722656 1.078125 -4.890625 1.078125 -5.015625 C 1.078125 -5.140625 1.070312 -5.207031 1.0625 -5.21875 L 0.453125 -5.359375 L 0.484375 -5.734375 L 2.5625 -5.734375 L 2.578125 -5.359375 L 1.984375 -5.21875 C 1.972656 -5.207031 1.960938 -5.144531 1.953125 -5.03125 C 1.941406 -4.925781 1.929688 -4.769531 1.921875 -4.5625 C 1.921875 -4.363281 1.921875 -4.101562 1.921875 -3.78125 L 1.921875 -1.9375 C 1.921875 -1.625 1.921875 -1.367188 1.921875 -1.171875 C 1.929688 -0.972656 1.941406 -0.816406 1.953125 -0.703125 C 1.960938 -0.597656 1.972656 -0.535156 1.984375 -0.515625 L 2.578125 -0.375 L 2.5625 0 Z M 0.484375 0 "/></g></g><g style="fill:#ffffff;fill-opacity:1;"><g transform="translate(193.777012, 274.025051)"><path style="stroke:none" d="M 4.9375 -1.390625 L 4.9375 -3.578125 C 4.9375 -3.960938 4.929688 -4.269531 4.921875 -4.5 C 4.921875 -4.738281 4.914062 -4.914062 4.90625 -5.03125 C 4.894531 -5.144531 4.890625 -5.207031 4.890625 -5.21875 L 4.21875 -5.359375 L 4.25 -5.734375 L 6.109375 -5.734375 L 6.140625 -5.359375 L 5.53125 -5.21875 C 5.53125 -5.207031 5.523438 -5.144531 5.515625 -5.03125 C 5.503906 -4.914062 5.492188 -4.738281 5.484375 -4.5 C 5.484375 -4.269531 5.484375 -3.960938 5.484375 -3.578125 L 5.484375 -1.265625 C 5.484375 -1.054688 5.484375 -0.84375 5.484375 -0.625 C 5.484375 -0.40625 5.484375 -0.179688 5.484375 0.046875 L 5.046875 0.046875 L 1.453125 -4.796875 L 1.671875 -4.796875 L 1.671875 -2.171875 C 1.671875 -1.785156 1.671875 -1.472656 1.671875 -1.234375 C 1.679688 -1.003906 1.691406 -0.832031 1.703125 -0.71875 C 1.710938 -0.601562 1.722656 -0.535156 1.734375 -0.515625 L 2.390625 -0.375 L 2.359375 0 L 0.484375 0 L 0.453125 -0.375 L 1.0625 -0.515625 C 1.070312 -0.535156 1.078125 -0.597656 1.078125 -0.703125 C 1.085938 -0.816406 1.09375 -0.992188 1.09375 -1.234375 C 1.101562 -1.472656 1.109375 -1.785156 1.109375 -2.171875 L 1.109375 -3.84375 C 1.109375 -4.132812 1.101562 -4.375 1.09375 -4.5625 C 1.09375 -4.757812 1.085938 -4.910156 1.078125 -5.015625 C 1.078125 -5.117188 1.070312 -5.1875 1.0625 -5.21875 L 0.453125 -5.359375 L 0.484375 -5.734375 L 1.828125 -5.734375 L 5.109375 -1.390625 Z M 4.9375 -1.390625 "/></g></g><g style="fill:#ffffff;fill-opacity:1;"><g transform="translate(203.356644, 274.025051)"><path style="stroke:none" d="M 5.0625 -5.765625 L 5.28125 -4.1875 L 4.84375 -4.140625 L 4.4375 -5.25 C 4.382812 -5.257812 4.320312 -5.265625 4.25 -5.265625 C 4.1875 -5.273438 4.128906 -5.28125 4.078125 -5.28125 L 3.71875 -5.28125 C 3.65625 -5.28125 3.566406 -5.28125 3.453125 -5.28125 C 3.347656 -5.28125 3.25 -5.273438 3.15625 -5.265625 C 3.15625 -5.210938 3.148438 -5.085938 3.140625 -4.890625 C 3.140625 -4.703125 3.140625 -4.476562 3.140625 -4.21875 C 3.140625 -3.96875 3.140625 -3.726562 3.140625 -3.5 L 3.140625 -2.171875 C 3.140625 -1.765625 3.144531 -1.410156 3.15625 -1.109375 C 3.164062 -0.804688 3.171875 -0.609375 3.171875 -0.515625 L 4 -0.390625 L 3.96875 0 L 1.46875 0 L 1.453125 -0.390625 L 2.28125 -0.515625 C 2.28125 -0.609375 2.28125 -0.804688 2.28125 -1.109375 C 2.289062 -1.410156 2.296875 -1.765625 2.296875 -2.171875 L 2.296875 -3.5 C 2.296875 -3.726562 2.296875 -3.96875 2.296875 -4.21875 C 2.296875 -4.476562 2.296875 -4.703125 2.296875 -4.890625 C 2.296875 -5.085938 2.289062 -5.210938 2.28125 -5.265625 C 2.195312 -5.273438 2.097656 -5.28125 1.984375 -5.28125 C 1.878906 -5.28125 1.796875 -5.28125 1.734375 -5.28125 L 1.34375 -5.28125 C 1.289062 -5.28125 1.234375 -5.273438 1.171875 -5.265625 C 1.109375 -5.265625 1.050781 -5.257812 1 -5.25 L 0.59375 -4.125 L 0.15625 -4.1875 L 0.375 -5.765625 C 0.445312 -5.765625 0.519531 -5.757812 0.59375 -5.75 C 0.675781 -5.75 0.757812 -5.742188 0.84375 -5.734375 C 0.925781 -5.734375 1.003906 -5.734375 1.078125 -5.734375 C 1.160156 -5.734375 1.238281 -5.734375 1.3125 -5.734375 L 4.109375 -5.734375 C 4.179688 -5.734375 4.257812 -5.734375 4.34375 -5.734375 C 4.425781 -5.734375 4.503906 -5.734375 4.578125 -5.734375 C 4.660156 -5.742188 4.738281 -5.75 4.8125 -5.75 C 4.894531 -5.757812 4.976562 -5.765625 5.0625 -5.765625 Z M 5.0625 -5.765625 "/></g></g><g style="fill:#ffffff;fill-opacity:1;"><g transform="translate(211.794143, 274.025051)"><path style="stroke:none" d="M 4.75 0.046875 C 4.5625 0.0234375 4.394531 0.0078125 4.25 0 C 4.101562 0 3.960938 0 3.828125 0 L 0.484375 0 L 0.453125 -0.375 L 1.0625 -0.515625 C 1.0625 -0.546875 1.0625 -0.617188 1.0625 -0.734375 C 1.070312 -0.847656 1.078125 -1.003906 1.078125 -1.203125 C 1.085938 -1.410156 1.09375 -1.65625 1.09375 -1.9375 L 1.09375 -3.78125 C 1.09375 -4.070312 1.085938 -4.316406 1.078125 -4.515625 C 1.078125 -4.722656 1.070312 -4.882812 1.0625 -5 C 1.0625 -5.125 1.0625 -5.195312 1.0625 -5.21875 L 0.453125 -5.359375 L 0.484375 -5.734375 L 3.609375 -5.734375 C 3.703125 -5.734375 3.800781 -5.734375 3.90625 -5.734375 C 4.007812 -5.734375 4.117188 -5.738281 4.234375 -5.75 C 4.347656 -5.757812 4.46875 -5.765625 4.59375 -5.765625 L 4.78125 -4.484375 L 4.34375 -4.421875 L 4.03125 -5.234375 C 3.976562 -5.242188 3.914062 -5.25 3.84375 -5.25 C 3.78125 -5.257812 3.710938 -5.265625 3.640625 -5.265625 L 2.546875 -5.265625 C 2.421875 -5.265625 2.3125 -5.257812 2.21875 -5.25 C 2.125 -5.25 2.03125 -5.242188 1.9375 -5.234375 C 1.9375 -5.210938 1.929688 -5.140625 1.921875 -5.015625 C 1.921875 -4.890625 1.921875 -4.75 1.921875 -4.59375 C 1.921875 -4.4375 1.921875 -4.28125 1.921875 -4.125 L 1.921875 -1.5 C 1.921875 -1.363281 1.921875 -1.226562 1.921875 -1.09375 C 1.921875 -0.96875 1.921875 -0.851562 1.921875 -0.75 C 1.929688 -0.644531 1.9375 -0.570312 1.9375 -0.53125 C 2.03125 -0.519531 2.125 -0.507812 2.21875 -0.5 C 2.320312 -0.5 2.4375 -0.5 2.5625 -0.5 L 3.5 -0.5 C 3.644531 -0.5 3.765625 -0.5 3.859375 -0.5 C 3.953125 -0.507812 4.023438 -0.515625 4.078125 -0.515625 C 4.128906 -0.523438 4.171875 -0.53125 4.203125 -0.53125 L 4.703125 -1.46875 L 5.140625 -1.375 Z M 3.65625 -2 L 3.546875 -2.671875 C 3.515625 -2.679688 3.457031 -2.6875 3.375 -2.6875 C 3.300781 -2.695312 3.207031 -2.703125 3.09375 -2.703125 L 2.359375 -2.703125 C 2.273438 -2.703125 2.179688 -2.695312 2.078125 -2.6875 C 1.972656 -2.6875 1.867188 -2.679688 1.765625 -2.671875 L 1.765625 -3.21875 C 1.867188 -3.207031 1.972656 -3.195312 2.078125 -3.1875 C 2.179688 -3.1875 2.273438 -3.1875 2.359375 -3.1875 L 3.09375 -3.1875 C 3.207031 -3.1875 3.300781 -3.1875 3.375 -3.1875 C 3.457031 -3.195312 3.515625 -3.207031 3.546875 -3.21875 L 3.65625 -3.890625 L 4.078125 -3.890625 L 4.078125 -2 Z M 3.65625 -2 "/></g></g><g style="fill:#ffffff;fill-opacity:1;"><g transform="translate(220.221881, 274.025051)"><path style="stroke:none" d="M 0.515625 0 L 0.484375 -0.375 L 1.078125 -0.515625 C 1.078125 -0.566406 1.078125 -0.640625 1.078125 -0.734375 C 1.085938 -0.828125 1.09375 -0.9375 1.09375 -1.0625 C 1.09375 -1.195312 1.09375 -1.335938 1.09375 -1.484375 C 1.101562 -1.640625 1.109375 -1.789062 1.109375 -1.9375 L 1.109375 -3.78125 C 1.109375 -4.082031 1.101562 -4.332031 1.09375 -4.53125 C 1.09375 -4.738281 1.085938 -4.898438 1.078125 -5.015625 C 1.078125 -5.128906 1.070312 -5.195312 1.0625 -5.21875 L 0.453125 -5.359375 L 0.484375 -5.734375 L 2.625 -5.734375 C 3.238281 -5.734375 3.707031 -5.613281 4.03125 -5.375 C 4.351562 -5.132812 4.515625 -4.785156 4.515625 -4.328125 C 4.515625 -4.003906 4.425781 -3.71875 4.25 -3.46875 C 4.070312 -3.21875 3.820312 -3.019531 3.5 -2.875 C 3.1875 -2.738281 2.832031 -2.671875 2.4375 -2.671875 L 1.8125 -2.671875 L 1.8125 -3.109375 L 2.359375 -3.109375 C 2.765625 -3.109375 3.078125 -3.207031 3.296875 -3.40625 C 3.523438 -3.613281 3.640625 -3.894531 3.640625 -4.25 C 3.640625 -4.59375 3.539062 -4.851562 3.34375 -5.03125 C 3.15625 -5.207031 2.878906 -5.296875 2.515625 -5.296875 L 1.9375 -5.296875 C 1.9375 -5.285156 1.929688 -5.257812 1.921875 -5.21875 C 1.921875 -5.1875 1.921875 -5.125 1.921875 -5.03125 C 1.921875 -4.9375 1.921875 -4.800781 1.921875 -4.625 C 1.921875 -4.445312 1.921875 -4.210938 1.921875 -3.921875 L 1.921875 -1.9375 C 1.921875 -1.664062 1.921875 -1.429688 1.921875 -1.234375 C 1.929688 -1.046875 1.941406 -0.894531 1.953125 -0.78125 C 1.960938 -0.664062 1.96875 -0.578125 1.96875 -0.515625 L 2.546875 -0.375 L 2.515625 0 Z M 5.140625 0.09375 C 4.847656 0.09375 4.59375 0.0390625 4.375 -0.0625 C 4.15625 -0.164062 3.941406 -0.34375 3.734375 -0.59375 C 3.523438 -0.851562 3.300781 -1.195312 3.0625 -1.625 L 2.390625 -2.828125 L 3.125 -3 L 4.1875 -1.453125 C 4.363281 -1.179688 4.523438 -0.960938 4.671875 -0.796875 C 4.816406 -0.640625 4.960938 -0.519531 5.109375 -0.4375 C 5.253906 -0.363281 5.410156 -0.3125 5.578125 -0.28125 L 5.5625 0.0625 C 5.5 0.0703125 5.429688 0.078125 5.359375 0.078125 C 5.285156 0.0859375 5.210938 0.09375 5.140625 0.09375 Z M 5.140625 0.09375 "/></g></g><g style="fill:#ffffff;fill-opacity:1;"><g transform="translate(228.756998, 274.025051)"><path style="stroke:none" d="M 0.484375 0 L 0.453125 -0.375 L 1.0625 -0.515625 C 1.070312 -0.546875 1.078125 -0.617188 1.078125 -0.734375 C 1.078125 -0.847656 1.078125 -1.003906 1.078125 -1.203125 C 1.085938 -1.410156 1.09375 -1.65625 1.09375 -1.9375 L 1.09375 -3.78125 C 1.09375 -4.070312 1.085938 -4.316406 1.078125 -4.515625 C 1.078125 -4.722656 1.078125 -4.890625 1.078125 -5.015625 C 1.078125 -5.140625 1.070312 -5.207031 1.0625 -5.21875 L 0.453125 -5.359375 L 0.484375 -5.734375 L 2.5625 -5.734375 L 2.578125 -5.359375 L 1.984375 -5.21875 C 1.972656 -5.207031 1.960938 -5.144531 1.953125 -5.03125 C 1.941406 -4.925781 1.929688 -4.769531 1.921875 -4.5625 C 1.921875 -4.363281 1.921875 -4.101562 1.921875 -3.78125 L 1.921875 -1.9375 C 1.921875 -1.625 1.921875 -1.367188 1.921875 -1.171875 C 1.929688 -0.972656 1.941406 -0.816406 1.953125 -0.703125 C 1.960938 -0.597656 1.972656 -0.535156 1.984375 -0.515625 L 2.578125 -0.375 L 2.5625 0 Z M 0.484375 0 "/></g></g><g style="fill:#ffffff;fill-opacity:1;"><g transform="translate(234.783331, 274.025051)"><path style="stroke:none" d="M 3.40625 0.09375 C 2.84375 0.09375 2.335938 -0.03125 1.890625 -0.28125 C 1.453125 -0.53125 1.109375 -0.875 0.859375 -1.3125 C 0.617188 -1.757812 0.5 -2.269531 0.5 -2.84375 C 0.5 -3.414062 0.625 -3.925781 0.875 -4.375 C 1.125 -4.820312 1.472656 -5.175781 1.921875 -5.4375 C 2.367188 -5.695312 2.867188 -5.828125 3.421875 -5.828125 C 3.972656 -5.828125 4.457031 -5.703125 4.875 -5.453125 C 5.289062 -5.203125 5.617188 -4.859375 5.859375 -4.421875 C 6.097656 -3.984375 6.21875 -3.476562 6.21875 -2.90625 C 6.21875 -2.46875 6.140625 -2.066406 5.984375 -1.703125 C 5.835938 -1.335938 5.632812 -1.019531 5.375 -0.75 C 5.113281 -0.488281 4.8125 -0.28125 4.46875 -0.125 C 4.132812 0.0195312 3.78125 0.09375 3.40625 0.09375 Z M 3.5 -0.4375 C 3.851562 -0.4375 4.160156 -0.523438 4.421875 -0.703125 C 4.679688 -0.890625 4.878906 -1.148438 5.015625 -1.484375 C 5.148438 -1.828125 5.21875 -2.222656 5.21875 -2.671875 C 5.21875 -3.203125 5.132812 -3.664062 4.96875 -4.0625 C 4.8125 -4.457031 4.59375 -4.765625 4.3125 -4.984375 C 4.03125 -5.210938 3.695312 -5.328125 3.3125 -5.328125 C 2.757812 -5.328125 2.320312 -5.117188 2 -4.703125 C 1.675781 -4.296875 1.515625 -3.738281 1.515625 -3.03125 C 1.515625 -2.519531 1.597656 -2.070312 1.765625 -1.6875 C 1.929688 -1.300781 2.164062 -0.992188 2.46875 -0.765625 C 2.769531 -0.546875 3.113281 -0.4375 3.5 -0.4375 Z M 3.5 -0.4375 "/></g></g><g style="fill:#ffffff;fill-opacity:1;"><g transform="translate(244.480104, 274.025051)"><path style="stroke:none" d="M 0.515625 0 L 0.484375 -0.375 L 1.078125 -0.515625 C 1.078125 -0.566406 1.078125 -0.640625 1.078125 -0.734375 C 1.085938 -0.828125 1.09375 -0.9375 1.09375 -1.0625 C 1.09375 -1.195312 1.09375 -1.335938 1.09375 -1.484375 C 1.101562 -1.640625 1.109375 -1.789062 1.109375 -1.9375 L 1.109375 -3.78125 C 1.109375 -4.082031 1.101562 -4.332031 1.09375 -4.53125 C 1.09375 -4.738281 1.085938 -4.898438 1.078125 -5.015625 C 1.078125 -5.128906 1.070312 -5.195312 1.0625 -5.21875 L 0.453125 -5.359375 L 0.484375 -5.734375 L 2.625 -5.734375 C 3.238281 -5.734375 3.707031 -5.613281 4.03125 -5.375 C 4.351562 -5.132812 4.515625 -4.785156 4.515625 -4.328125 C 4.515625 -4.003906 4.425781 -3.71875 4.25 -3.46875 C 4.070312 -3.21875 3.820312 -3.019531 3.5 -2.875 C 3.1875 -2.738281 2.832031 -2.671875 2.4375 -2.671875 L 1.8125 -2.671875 L 1.8125 -3.109375 L 2.359375 -3.109375 C 2.765625 -3.109375 3.078125 -3.207031 3.296875 -3.40625 C 3.523438 -3.613281 3.640625 -3.894531 3.640625 -4.25 C 3.640625 -4.59375 3.539062 -4.851562 3.34375 -5.03125 C 3.15625 -5.207031 2.878906 -5.296875 2.515625 -5.296875 L 1.9375 -5.296875 C 1.9375 -5.285156 1.929688 -5.257812 1.921875 -5.21875 C 1.921875 -5.1875 1.921875 -5.125 1.921875 -5.03125 C 1.921875 -4.9375 1.921875 -4.800781 1.921875 -4.625 C 1.921875 -4.445312 1.921875 -4.210938 1.921875 -3.921875 L 1.921875 -1.9375 C 1.921875 -1.664062 1.921875 -1.429688 1.921875 -1.234375 C 1.929688 -1.046875 1.941406 -0.894531 1.953125 -0.78125 C 1.960938 -0.664062 1.96875 -0.578125 1.96875 -0.515625 L 2.546875 -0.375 L 2.515625 0 Z M 5.140625 0.09375 C 4.847656 0.09375 4.59375 0.0390625 4.375 -0.0625 C 4.15625 -0.164062 3.941406 -0.34375 3.734375 -0.59375 C 3.523438 -0.851562 3.300781 -1.195312 3.0625 -1.625 L 2.390625 -2.828125 L 3.125 -3 L 4.1875 -1.453125 C 4.363281 -1.179688 4.523438 -0.960938 4.671875 -0.796875 C 4.816406 -0.640625 4.960938 -0.519531 5.109375 -0.4375 C 5.253906 -0.363281 5.410156 -0.3125 5.578125 -0.28125 L 5.5625 0.0625 C 5.5 0.0703125 5.429688 0.078125 5.359375 0.078125 C 5.285156 0.0859375 5.210938 0.09375 5.140625 0.09375 Z M 5.140625 0.09375 "/></g></g><g style="fill:#ffffff;fill-opacity:1;"><g transform="translate(253.015221, 274.025051)"><path style="stroke:none" d="M 4.75 0.046875 C 4.5625 0.0234375 4.394531 0.0078125 4.25 0 C 4.101562 0 3.960938 0 3.828125 0 L 0.484375 0 L 0.453125 -0.375 L 1.0625 -0.515625 C 1.0625 -0.546875 1.0625 -0.617188 1.0625 -0.734375 C 1.070312 -0.847656 1.078125 -1.003906 1.078125 -1.203125 C 1.085938 -1.410156 1.09375 -1.65625 1.09375 -1.9375 L 1.09375 -3.78125 C 1.09375 -4.070312 1.085938 -4.316406 1.078125 -4.515625 C 1.078125 -4.722656 1.070312 -4.882812 1.0625 -5 C 1.0625 -5.125 1.0625 -5.195312 1.0625 -5.21875 L 0.453125 -5.359375 L 0.484375 -5.734375 L 3.609375 -5.734375 C 3.703125 -5.734375 3.800781 -5.734375 3.90625 -5.734375 C 4.007812 -5.734375 4.117188 -5.738281 4.234375 -5.75 C 4.347656 -5.757812 4.46875 -5.765625 4.59375 -5.765625 L 4.78125 -4.484375 L 4.34375 -4.421875 L 4.03125 -5.234375 C 3.976562 -5.242188 3.914062 -5.25 3.84375 -5.25 C 3.78125 -5.257812 3.710938 -5.265625 3.640625 -5.265625 L 2.546875 -5.265625 C 2.421875 -5.265625 2.3125 -5.257812 2.21875 -5.25 C 2.125 -5.25 2.03125 -5.242188 1.9375 -5.234375 C 1.9375 -5.210938 1.929688 -5.140625 1.921875 -5.015625 C 1.921875 -4.890625 1.921875 -4.75 1.921875 -4.59375 C 1.921875 -4.4375 1.921875 -4.28125 1.921875 -4.125 L 1.921875 -1.5 C 1.921875 -1.363281 1.921875 -1.226562 1.921875 -1.09375 C 1.921875 -0.96875 1.921875 -0.851562 1.921875 -0.75 C 1.929688 -0.644531 1.9375 -0.570312 1.9375 -0.53125 C 2.03125 -0.519531 2.125 -0.507812 2.21875 -0.5 C 2.320312 -0.5 2.4375 -0.5 2.5625 -0.5 L 3.5 -0.5 C 3.644531 -0.5 3.765625 -0.5 3.859375 -0.5 C 3.953125 -0.507812 4.023438 -0.515625 4.078125 -0.515625 C 4.128906 -0.523438 4.171875 -0.53125 4.203125 -0.53125 L 4.703125 -1.46875 L 5.140625 -1.375 Z M 3.65625 -2 L 3.546875 -2.671875 C 3.515625 -2.679688 3.457031 -2.6875 3.375 -2.6875 C 3.300781 -2.695312 3.207031 -2.703125 3.09375 -2.703125 L 2.359375 -2.703125 C 2.273438 -2.703125 2.179688 -2.695312 2.078125 -2.6875 C 1.972656 -2.6875 1.867188 -2.679688 1.765625 -2.671875 L 1.765625 -3.21875 C 1.867188 -3.207031 1.972656 -3.195312 2.078125 -3.1875 C 2.179688 -3.1875 2.273438 -3.1875 2.359375 -3.1875 L 3.09375 -3.1875 C 3.207031 -3.1875 3.300781 -3.1875 3.375 -3.1875 C 3.457031 -3.195312 3.515625 -3.207031 3.546875 -3.21875 L 3.65625 -3.890625 L 4.078125 -3.890625 L 4.078125 -2 Z M 3.65625 -2 "/></g></g><g style="fill:#ffffff;fill-opacity:1;"><g transform="translate(261.442959, 274.025051)"><path style="stroke:none" d="M 2.203125 0.09375 C 1.910156 0.09375 1.613281 0.0546875 1.3125 -0.015625 C 1.019531 -0.0859375 0.773438 -0.179688 0.578125 -0.296875 L 0.53125 -1.546875 L 0.953125 -1.59375 L 1.21875 -0.71875 C 1.375 -0.613281 1.546875 -0.535156 1.734375 -0.484375 C 1.929688 -0.429688 2.132812 -0.40625 2.34375 -0.40625 C 2.664062 -0.40625 2.921875 -0.484375 3.109375 -0.640625 C 3.304688 -0.796875 3.40625 -1.003906 3.40625 -1.265625 C 3.40625 -1.492188 3.335938 -1.6875 3.203125 -1.84375 C 3.066406 -2 2.890625 -2.128906 2.671875 -2.234375 C 2.453125 -2.347656 2.21875 -2.457031 1.96875 -2.5625 C 1.726562 -2.675781 1.5 -2.800781 1.28125 -2.9375 C 1.070312 -3.082031 0.894531 -3.253906 0.75 -3.453125 C 0.613281 -3.660156 0.546875 -3.921875 0.546875 -4.234375 C 0.546875 -4.546875 0.632812 -4.820312 0.8125 -5.0625 C 0.988281 -5.3125 1.234375 -5.5 1.546875 -5.625 C 1.859375 -5.757812 2.21875 -5.828125 2.625 -5.828125 C 2.789062 -5.828125 2.953125 -5.816406 3.109375 -5.796875 C 3.273438 -5.785156 3.425781 -5.757812 3.5625 -5.71875 C 3.695312 -5.6875 3.820312 -5.648438 3.9375 -5.609375 L 4.015625 -4.390625 L 3.59375 -4.34375 L 3.328125 -5.171875 C 3.117188 -5.296875 2.847656 -5.359375 2.515625 -5.359375 C 2.179688 -5.359375 1.914062 -5.273438 1.71875 -5.109375 C 1.519531 -4.953125 1.421875 -4.742188 1.421875 -4.484375 C 1.421875 -4.242188 1.488281 -4.046875 1.625 -3.890625 C 1.769531 -3.734375 1.953125 -3.59375 2.171875 -3.46875 C 2.390625 -3.351562 2.617188 -3.242188 2.859375 -3.140625 C 3.109375 -3.035156 3.34375 -2.910156 3.5625 -2.765625 C 3.78125 -2.628906 3.957031 -2.460938 4.09375 -2.265625 C 4.238281 -2.066406 4.3125 -1.820312 4.3125 -1.53125 C 4.3125 -1.21875 4.21875 -0.9375 4.03125 -0.6875 C 3.851562 -0.445312 3.601562 -0.253906 3.28125 -0.109375 C 2.96875 0.0234375 2.609375 0.09375 2.203125 0.09375 Z M 2.203125 0.09375 "/></g></g><g style="fill:#ffffff;fill-opacity:1;"><g transform="translate(38.425992, 252.92515)"><path style="stroke:none" d="M 21.546875 0 L 3.859375 0 L 3.859375 -30.703125 L 21.546875 -30.703125 L 21.546875 -25.359375 L 10.375 -25.359375 L 10.375 -18.625 L 20.765625 -18.625 L 20.765625 -13.296875 L 10.375 -13.296875 L 10.375 -5.375 L 21.546875 -5.375 Z M 21.546875 0 "/></g></g><g style="fill:#ffffff;fill-opacity:1;"><g transform="translate(238.917747, 252.925061)"><path style="stroke:none" d="M 31.09375 0 L 22.828125 0 L 9.46875 -23.21875 L 9.28125 -23.21875 C 9.332031 -22.25 9.378906 -21.273438 9.421875 -20.296875 C 9.460938 -19.316406 9.503906 -18.34375 9.546875 -17.375 C 9.585938 -16.40625 9.628906 -15.429688 9.671875 -14.453125 L 9.671875 0 L 3.859375 0 L 3.859375 -30.703125 L 12.078125 -30.703125 L 25.40625 -7.703125 L 25.546875 -7.703125 C 25.523438 -8.660156 25.492188 -9.609375 25.453125 -10.546875 C 25.410156 -11.484375 25.367188 -12.421875 25.328125 -13.359375 C 25.296875 -14.296875 25.265625 -15.234375 25.234375 -16.171875 L 25.234375 -30.703125 L 31.09375 -30.703125 Z M 31.09375 0 "/></g></g><g style="fill:#ffffff;fill-opacity:1;"><g transform="translate(60.703337, 252.625075)"><path style="stroke:none" d="M 6.671875 -23.375 C 6.671875 -22.175781 6.960938 -21.128906 7.546875 -20.234375 C 8.128906 -19.347656 8.84375 -18.601562 9.6875 -18 C 10.53125 -17.40625 11.6875 -16.664062 13.15625 -15.78125 C 14.78125 -14.800781 16.03125 -13.988281 16.90625 -13.34375 C 17.78125 -12.695312 18.53125 -11.875 19.15625 -10.875 C 19.789062 -9.882812 20.109375 -8.695312 20.109375 -7.3125 C 20.109375 -5.84375 19.738281 -4.507812 19 -3.3125 C 18.257812 -2.113281 17.175781 -1.171875 15.75 -0.484375 C 14.320312 0.203125 12.613281 0.546875 10.625 0.546875 C 8.257812 0.546875 6.097656 0.0078125 4.140625 -1.0625 C 3.984375 -1.15625 3.878906 -1.257812 3.828125 -1.375 C 3.785156 -1.5 3.75 -1.6875 3.71875 -1.9375 L 3.125 -8.1875 C 3.09375 -8.3125 3.160156 -8.390625 3.328125 -8.421875 C 3.503906 -8.453125 3.609375 -8.40625 3.640625 -8.28125 C 4.128906 -6.070312 5.039062 -4.171875 6.375 -2.578125 C 7.707031 -0.984375 9.476562 -0.1875 11.6875 -0.1875 C 13.21875 -0.1875 14.507812 -0.609375 15.5625 -1.453125 C 16.625 -2.296875 17.15625 -3.632812 17.15625 -5.46875 C 17.15625 -6.851562 16.847656 -8.050781 16.234375 -9.0625 C 15.617188 -10.070312 14.875 -10.90625 14 -11.5625 C 13.132812 -12.226562 11.945312 -13.003906 10.4375 -13.890625 C 8.96875 -14.773438 7.8125 -15.539062 6.96875 -16.1875 C 6.125 -16.832031 5.410156 -17.644531 4.828125 -18.625 C 4.242188 -19.613281 3.953125 -20.765625 3.953125 -22.078125 C 3.953125 -23.609375 4.359375 -24.914062 5.171875 -26 C 5.984375 -27.09375 7.039062 -27.90625 8.34375 -28.4375 C 9.644531 -28.976562 11.035156 -29.25 12.515625 -29.25 C 14.316406 -29.25 16.109375 -28.882812 17.890625 -28.15625 C 18.347656 -28 18.578125 -27.738281 18.578125 -27.375 L 18.90625 -22.078125 C 18.90625 -21.953125 18.828125 -21.890625 18.671875 -21.890625 C 18.523438 -21.890625 18.4375 -21.953125 18.40625 -22.078125 C 18.15625 -23.671875 17.492188 -25.148438 16.421875 -26.515625 C 15.347656 -27.878906 13.800781 -28.5625 11.78125 -28.5625 C 10.0625 -28.5625 8.78125 -28.0625 7.9375 -27.0625 C 7.09375 -26.070312 6.671875 -24.84375 6.671875 -23.375 Z M 6.671875 -23.375 "/></g></g><g style="fill:#ffffff;fill-opacity:1;"><g transform="translate(83.287439, 252.625075)"><path style="stroke:none" d="M 8.6875 -27.921875 C 6.757812 -27.921875 5.3125 -27.429688 4.34375 -26.453125 C 3.375 -25.472656 2.675781 -23.800781 2.25 -21.4375 C 2.25 -21.375 2.164062 -21.34375 2 -21.34375 C 1.832031 -21.34375 1.75 -21.375 1.75 -21.4375 C 1.875 -22.539062 2.007812 -23.976562 2.15625 -25.75 C 2.3125 -27.53125 2.390625 -28.867188 2.390625 -29.765625 C 2.390625 -29.910156 2.472656 -29.984375 2.640625 -29.984375 C 2.804688 -29.984375 2.890625 -29.910156 2.890625 -29.765625 C 2.890625 -29.085938 3.71875 -28.75 5.375 -28.75 C 7.988281 -28.65625 11.070312 -28.609375 14.625 -28.609375 C 16.4375 -28.609375 18.351562 -28.640625 20.375 -28.703125 L 23.5 -28.75 C 24.601562 -28.75 25.421875 -28.820312 25.953125 -28.96875 C 26.492188 -29.125 26.84375 -29.4375 27 -29.90625 C 27.03125 -30.019531 27.125 -30.078125 27.28125 -30.078125 C 27.4375 -30.078125 27.515625 -30.019531 27.515625 -29.90625 C 27.421875 -29.007812 27.328125 -27.65625 27.234375 -25.84375 C 27.140625 -24.039062 27.09375 -22.570312 27.09375 -21.4375 C 27.09375 -21.375 27 -21.34375 26.8125 -21.34375 C 26.632812 -21.34375 26.546875 -21.375 26.546875 -21.4375 C 26.453125 -23.832031 25.957031 -25.507812 25.0625 -26.46875 C 24.175781 -27.4375 22.707031 -27.921875 20.65625 -27.921875 C 19.269531 -27.921875 18.285156 -27.859375 17.703125 -27.734375 C 17.128906 -27.609375 16.734375 -27.347656 16.515625 -26.953125 C 16.296875 -26.554688 16.1875 -25.882812 16.1875 -24.9375 L 16.1875 -3.71875 C 16.1875 -2.769531 16.296875 -2.082031 16.515625 -1.65625 C 16.734375 -1.226562 17.144531 -0.9375 17.75 -0.78125 C 18.363281 -0.625 19.332031 -0.546875 20.65625 -0.546875 C 20.75 -0.546875 20.796875 -0.453125 20.796875 -0.265625 C 20.796875 -0.0859375 20.75 0 20.65625 0 C 19.644531 0 18.832031 -0.015625 18.21875 -0.046875 L 14.625 -0.09375 L 11.171875 -0.046875 C 10.566406 -0.015625 9.722656 0 8.640625 0 C 8.585938 0 8.5625 -0.0859375 8.5625 -0.265625 C 8.5625 -0.453125 8.585938 -0.546875 8.640625 -0.546875 C 9.960938 -0.546875 10.929688 -0.625 11.546875 -0.78125 C 12.160156 -0.9375 12.582031 -1.234375 12.8125 -1.671875 C 13.039062 -2.117188 13.15625 -2.800781 13.15625 -3.71875 L 13.15625 -25.03125 C 13.15625 -25.976562 13.046875 -26.640625 12.828125 -27.015625 C 12.617188 -27.398438 12.222656 -27.644531 11.640625 -27.75 C 11.054688 -27.863281 10.070312 -27.921875 8.6875 -27.921875 Z M 8.6875 -27.921875 "/></g></g><g style="fill:#ffffff;fill-opacity:1;"><g transform="translate(112.448985, 252.625075)"><path style="stroke:none" d="M 26.3125 -23.6875 C 26.3125 -26.695312 24.976562 -28.203125 22.3125 -28.203125 C 22.21875 -28.203125 22.171875 -28.289062 22.171875 -28.46875 C 22.171875 -28.65625 22.21875 -28.75 22.3125 -28.75 L 24.28125 -28.703125 C 25.382812 -28.640625 26.257812 -28.609375 26.90625 -28.609375 C 27.425781 -28.609375 28.175781 -28.640625 29.15625 -28.703125 L 31.09375 -28.75 C 31.15625 -28.75 31.1875 -28.65625 31.1875 -28.46875 C 31.1875 -28.289062 31.15625 -28.203125 31.09375 -28.203125 C 28.644531 -28.203125 27.421875 -26.695312 27.421875 -23.6875 L 27.421875 -10.625 C 27.421875 -7.101562 26.4375 -4.351562 24.46875 -2.375 C 22.507812 -0.394531 19.875 0.59375 16.5625 0.59375 C 14.289062 0.59375 12.300781 0.148438 10.59375 -0.734375 C 8.894531 -1.617188 7.578125 -2.878906 6.640625 -4.515625 C 5.710938 -6.160156 5.25 -8.085938 5.25 -10.296875 L 5.25 -25.03125 C 5.25 -25.945312 5.15625 -26.617188 4.96875 -27.046875 C 4.78125 -27.472656 4.414062 -27.769531 3.875 -27.9375 C 3.34375 -28.113281 2.492188 -28.203125 1.328125 -28.203125 C 1.265625 -28.203125 1.234375 -28.289062 1.234375 -28.46875 C 1.234375 -28.65625 1.265625 -28.75 1.328125 -28.75 L 3.59375 -28.703125 C 4.875 -28.640625 5.914062 -28.609375 6.71875 -28.609375 C 7.570312 -28.609375 8.644531 -28.640625 9.9375 -28.703125 L 12.140625 -28.75 C 12.234375 -28.75 12.28125 -28.65625 12.28125 -28.46875 C 12.28125 -28.289062 12.234375 -28.203125 12.140625 -28.203125 C 11.003906 -28.203125 10.160156 -28.109375 9.609375 -27.921875 C 9.054688 -27.734375 8.6875 -27.414062 8.5 -26.96875 C 8.320312 -26.53125 8.234375 -25.851562 8.234375 -24.9375 L 8.234375 -11.90625 C 8.234375 -8.320312 9.050781 -5.570312 10.6875 -3.65625 C 12.332031 -1.738281 14.628906 -0.78125 17.578125 -0.78125 C 20.335938 -0.78125 22.484375 -1.644531 24.015625 -3.375 C 25.546875 -5.113281 26.3125 -7.515625 26.3125 -10.578125 Z M 26.3125 -23.6875 "/></g></g><g style="fill:#ffffff;fill-opacity:1;"><g transform="translate(144.554284, 252.625075)"><path style="stroke:none" d="M 13.9375 0.1875 C 13.050781 0.1875 12.023438 0.140625 10.859375 0.046875 C 10.429688 0.015625 9.882812 -0.015625 9.21875 -0.046875 C 8.5625 -0.078125 7.832031 -0.09375 7.03125 -0.09375 L 3.90625 -0.046875 C 3.351562 -0.015625 2.585938 0 1.609375 0 C 1.546875 0 1.515625 -0.0859375 1.515625 -0.265625 C 1.515625 -0.453125 1.546875 -0.546875 1.609375 -0.546875 C 2.773438 -0.546875 3.625 -0.625 4.15625 -0.78125 C 4.695312 -0.9375 5.066406 -1.234375 5.265625 -1.671875 C 5.460938 -2.117188 5.5625 -2.800781 5.5625 -3.71875 L 5.5625 -25.03125 C 5.5625 -25.945312 5.46875 -26.617188 5.28125 -27.046875 C 5.101562 -27.472656 4.742188 -27.769531 4.203125 -27.9375 C 3.671875 -28.113281 2.820312 -28.203125 1.65625 -28.203125 C 1.59375 -28.203125 1.5625 -28.289062 1.5625 -28.46875 C 1.5625 -28.65625 1.59375 -28.75 1.65625 -28.75 L 3.953125 -28.703125 C 5.242188 -28.640625 6.269531 -28.609375 7.03125 -28.609375 C 8.195312 -28.609375 9.347656 -28.65625 10.484375 -28.75 C 11.835938 -28.8125 12.773438 -28.84375 13.296875 -28.84375 C 16.484375 -28.84375 19.3125 -28.226562 21.78125 -27 C 24.25 -25.769531 26.15625 -24.097656 27.5 -21.984375 C 28.851562 -19.867188 29.53125 -17.492188 29.53125 -14.859375 C 29.53125 -11.878906 28.832031 -9.25 27.4375 -6.96875 C 26.039062 -4.6875 24.144531 -2.921875 21.75 -1.671875 C 19.363281 -0.429688 16.757812 0.1875 13.9375 0.1875 Z M 13.484375 -0.5 C 15.929688 -0.5 18.101562 -1.015625 20 -2.046875 C 21.90625 -3.078125 23.382812 -4.59375 24.4375 -6.59375 C 25.5 -8.601562 26.03125 -11.019531 26.03125 -13.84375 C 26.03125 -16.507812 25.523438 -18.929688 24.515625 -21.109375 C 23.503906 -23.285156 22.0625 -25.003906 20.1875 -26.265625 C 18.320312 -27.523438 16.160156 -28.15625 13.703125 -28.15625 C 12.390625 -28.15625 11.367188 -28.078125 10.640625 -27.921875 C 9.921875 -27.765625 9.394531 -27.457031 9.0625 -27 C 8.726562 -26.539062 8.5625 -25.851562 8.5625 -24.9375 L 8.5625 -4.234375 C 8.5625 -3.316406 8.691406 -2.59375 8.953125 -2.0625 C 9.210938 -1.539062 9.703125 -1.148438 10.421875 -0.890625 C 11.140625 -0.628906 12.160156 -0.5 13.484375 -0.5 Z M 13.484375 -0.5 "/></g></g><g style="fill:#ffffff;fill-opacity:1;"><g transform="translate(176.337604, 252.625075)"><path style="stroke:none" d="M 9.15625 -3.71875 C 9.15625 -2.800781 9.242188 -2.117188 9.421875 -1.671875 C 9.609375 -1.234375 9.96875 -0.9375 10.5 -0.78125 C 11.039062 -0.625 11.894531 -0.546875 13.0625 -0.546875 C 13.15625 -0.546875 13.203125 -0.453125 13.203125 -0.265625 C 13.203125 -0.0859375 13.15625 0 13.0625 0 C 12.144531 0 11.410156 -0.015625 10.859375 -0.046875 L 7.59375 -0.09375 L 4.421875 -0.046875 C 3.867188 -0.015625 3.113281 0 2.15625 0 C 2.070312 0 2.03125 -0.0859375 2.03125 -0.265625 C 2.03125 -0.453125 2.070312 -0.546875 2.15625 -0.546875 C 3.320312 -0.546875 4.171875 -0.625 4.703125 -0.78125 C 5.242188 -0.9375 5.613281 -1.234375 5.8125 -1.671875 C 6.019531 -2.117188 6.125 -2.800781 6.125 -3.71875 L 6.125 -25.03125 C 6.125 -25.945312 6.019531 -26.617188 5.8125 -27.046875 C 5.613281 -27.472656 5.242188 -27.769531 4.703125 -27.9375 C 4.171875 -28.113281 3.320312 -28.203125 2.15625 -28.203125 C 2.070312 -28.203125 2.03125 -28.289062 2.03125 -28.46875 C 2.03125 -28.65625 2.070312 -28.75 2.15625 -28.75 L 4.421875 -28.703125 C 5.703125 -28.640625 6.757812 -28.609375 7.59375 -28.609375 C 8.507812 -28.609375 9.613281 -28.640625 10.90625 -28.703125 L 13.0625 -28.75 C 13.15625 -28.75 13.203125 -28.65625 13.203125 -28.46875 C 13.203125 -28.289062 13.15625 -28.203125 13.0625 -28.203125 C 11.925781 -28.203125 11.085938 -28.109375 10.546875 -27.921875 C 10.015625 -27.734375 9.648438 -27.414062 9.453125 -26.96875 C 9.253906 -26.53125 9.15625 -25.851562 9.15625 -24.9375 Z M 9.15625 -3.71875 "/></g></g><g style="fill:#ffffff;fill-opacity:1;"><g transform="translate(191.608313, 252.625075)"><path style="stroke:none" d="M 16.84375 0.546875 C 13.988281 0.546875 11.445312 -0.117188 9.21875 -1.453125 C 7 -2.785156 5.28125 -4.59375 4.0625 -6.875 C 2.851562 -9.15625 2.25 -11.648438 2.25 -14.359375 C 2.25 -17.515625 3.046875 -20.21875 4.640625 -22.46875 C 6.234375 -24.726562 8.28125 -26.421875 10.78125 -27.546875 C 13.28125 -28.679688 15.835938 -29.25 18.453125 -29.25 C 21.359375 -29.25 23.914062 -28.566406 26.125 -27.203125 C 28.332031 -25.835938 30.023438 -24.035156 31.203125 -21.796875 C 32.390625 -19.566406 32.984375 -17.191406 32.984375 -14.671875 C 32.984375 -11.878906 32.242188 -9.316406 30.765625 -6.984375 C 29.296875 -4.660156 27.328125 -2.820312 24.859375 -1.46875 C 22.390625 -0.125 19.71875 0.546875 16.84375 0.546875 Z M 18.453125 -0.40625 C 20.535156 -0.40625 22.410156 -0.910156 24.078125 -1.921875 C 25.753906 -2.941406 27.070312 -4.429688 28.03125 -6.390625 C 29 -8.359375 29.484375 -10.691406 29.484375 -13.390625 C 29.484375 -16.265625 28.945312 -18.820312 27.875 -21.0625 C 26.800781 -23.300781 25.289062 -25.050781 23.34375 -26.3125 C 21.394531 -27.570312 19.117188 -28.203125 16.515625 -28.203125 C 13.140625 -28.203125 10.5 -27.113281 8.59375 -24.9375 C 6.695312 -22.757812 5.75 -19.769531 5.75 -15.96875 C 5.75 -13.082031 6.285156 -10.453125 7.359375 -8.078125 C 8.429688 -5.703125 9.929688 -3.828125 11.859375 -2.453125 C 13.796875 -1.085938 15.992188 -0.40625 18.453125 -0.40625 Z M 18.453125 -0.40625 "/></g></g><g style="fill:#ffffff;fill-opacity:1;"><g transform="translate(273.878687, 252.625075)"><path style="stroke:none" d="M 26.3125 -23.6875 C 26.3125 -26.695312 24.976562 -28.203125 22.3125 -28.203125 C 22.21875 -28.203125 22.171875 -28.289062 22.171875 -28.46875 C 22.171875 -28.65625 22.21875 -28.75 22.3125 -28.75 L 24.28125 -28.703125 C 25.382812 -28.640625 26.257812 -28.609375 26.90625 -28.609375 C 27.425781 -28.609375 28.175781 -28.640625 29.15625 -28.703125 L 31.09375 -28.75 C 31.15625 -28.75 31.1875 -28.65625 31.1875 -28.46875 C 31.1875 -28.289062 31.15625 -28.203125 31.09375 -28.203125 C 28.644531 -28.203125 27.421875 -26.695312 27.421875 -23.6875 L 27.421875 -10.625 C 27.421875 -7.101562 26.4375 -4.351562 24.46875 -2.375 C 22.507812 -0.394531 19.875 0.59375 16.5625 0.59375 C 14.289062 0.59375 12.300781 0.148438 10.59375 -0.734375 C 8.894531 -1.617188 7.578125 -2.878906 6.640625 -4.515625 C 5.710938 -6.160156 5.25 -8.085938 5.25 -10.296875 L 5.25 -25.03125 C 5.25 -25.945312 5.15625 -26.617188 4.96875 -27.046875 C 4.78125 -27.472656 4.414062 -27.769531 3.875 -27.9375 C 3.34375 -28.113281 2.492188 -28.203125 1.328125 -28.203125 C 1.265625 -28.203125 1.234375 -28.289062 1.234375 -28.46875 C 1.234375 -28.65625 1.265625 -28.75 1.328125 -28.75 L 3.59375 -28.703125 C 4.875 -28.640625 5.914062 -28.609375 6.71875 -28.609375 C 7.570312 -28.609375 8.644531 -28.640625 9.9375 -28.703125 L 12.140625 -28.75 C 12.234375 -28.75 12.28125 -28.65625 12.28125 -28.46875 C 12.28125 -28.289062 12.234375 -28.203125 12.140625 -28.203125 C 11.003906 -28.203125 10.160156 -28.109375 9.609375 -27.921875 C 9.054688 -27.734375 8.6875 -27.414062 8.5 -26.96875 C 8.320312 -26.53125 8.234375 -25.851562 8.234375 -24.9375 L 8.234375 -11.90625 C 8.234375 -8.320312 9.050781 -5.570312 10.6875 -3.65625 C 12.332031 -1.738281 14.628906 -0.78125 17.578125 -0.78125 C 20.335938 -0.78125 22.484375 -1.644531 24.015625 -3.375 C 25.546875 -5.113281 26.3125 -7.515625 26.3125 -10.578125 Z M 26.3125 -23.6875 "/></g></g><g style="fill:#ffffff;fill-opacity:1;"><g transform="translate(304.282077, 252.625075)"><path style="stroke:none" d="M 32.15625 -0.546875 C 32.28125 -0.546875 32.34375 -0.453125 32.34375 -0.265625 C 32.34375 -0.0859375 32.28125 0 32.15625 0 C 31.570312 0 30.664062 -0.03125 29.4375 -0.09375 C 28.207031 -0.15625 27.316406 -0.1875 26.765625 -0.1875 C 26.097656 -0.1875 25.242188 -0.15625 24.203125 -0.09375 C 23.210938 -0.03125 22.457031 0 21.9375 0 C 21.820312 0 21.765625 -0.0859375 21.765625 -0.265625 C 21.765625 -0.453125 21.820312 -0.546875 21.9375 -0.546875 C 23.070312 -0.546875 23.898438 -0.65625 24.421875 -0.875 C 24.941406 -1.09375 25.203125 -1.460938 25.203125 -1.984375 C 25.203125 -2.410156 25.003906 -3.066406 24.609375 -3.953125 L 20.515625 -12.65625 L 9.5625 -12.65625 L 6.671875 -5.84375 C 6.242188 -4.800781 6.03125 -3.957031 6.03125 -3.3125 C 6.03125 -2.363281 6.40625 -1.664062 7.15625 -1.21875 C 7.90625 -0.769531 9.03125 -0.546875 10.53125 -0.546875 C 10.6875 -0.546875 10.765625 -0.453125 10.765625 -0.265625 C 10.765625 -0.0859375 10.6875 0 10.53125 0 C 9.976562 0 9.179688 -0.03125 8.140625 -0.09375 C 6.972656 -0.15625 5.960938 -0.1875 5.109375 -0.1875 C 4.304688 -0.1875 3.382812 -0.15625 2.34375 -0.09375 C 1.425781 -0.03125 0.660156 0 0.046875 0 C -0.109375 0 -0.1875 -0.0859375 -0.1875 -0.265625 C -0.1875 -0.453125 -0.109375 -0.546875 0.046875 -0.546875 C 0.898438 -0.546875 1.625 -0.707031 2.21875 -1.03125 C 2.820312 -1.351562 3.390625 -1.921875 3.921875 -2.734375 C 4.460938 -3.546875 5.054688 -4.71875 5.703125 -6.25 L 15.40625 -29.15625 C 15.46875 -29.25 15.578125 -29.296875 15.734375 -29.296875 C 15.890625 -29.296875 15.984375 -29.25 16.015625 -29.15625 L 26.859375 -6.296875 C 27.898438 -4.023438 28.789062 -2.5 29.53125 -1.71875 C 30.269531 -0.9375 31.144531 -0.546875 32.15625 -0.546875 Z M 9.9375 -13.5625 L 20.109375 -13.5625 L 14.71875 -24.9375 Z M 9.9375 -13.5625 "/></g></g></g></svg>